<svg width="559" height="628" viewBox="0 0 559 628" fill="none" xmlns="http://www.w3.org/2000/svg">
<circle cx="69.3359" cy="6.5" r="6.5" fill="#A13DB5"/>
<path d="M216.148 301L214.513 277H216.913L217.423 286.03L218.053 298.84H219.238L219.898 286.03L220.993 277.15H225.343L226.438 286.03L227.098 298.84H228.283L228.943 286.03L229.483 277H231.853L230.188 301H225.328L224.533 293.125L223.753 279.235H222.613L221.818 293.125L221.008 301H216.148ZM235.331 301V277H237.716V287.86H242.141V277H244.526V301H242.141V290.005H237.716V301H235.331ZM247.743 301L250.323 277H255.228L257.793 301H255.363L254.748 294.22H250.788L250.188 301H247.743ZM250.998 292.075H254.553L254.088 286.99L253.428 279.145H252.138L251.463 287.005L250.998 292.075ZM262.258 301V279.145H258.598V277H268.273V279.145H264.628V301H262.258ZM277.458 301V277H282.603L284.028 286.825L284.973 298.75H285.798L286.728 286.825L288.168 277H293.283V301H290.868V293.5L291.168 279.145H289.893L288.348 294.115L287.178 300.895H283.518L282.423 294.115L280.863 279.145H279.603L279.903 293.5V301H277.458ZM296.52 301L299.1 277H304.005L306.57 301H304.14L303.525 294.22H299.565L298.965 301H296.52ZM299.775 292.075H303.33L302.865 286.99L302.205 279.145H300.915L300.24 287.005L299.775 292.075ZM309.8 301V277H312.29L312.275 282.64L312.095 289.69H312.83L314.99 282.145L316.655 277H319.22L315.665 287.74L319.595 301H317.15L314.15 290.635L312.215 295.6V301H309.8ZM322.178 301V277H330.143V279.145H324.563V287.86H329.843V290.005H324.563V298.855H330.143V301H322.178ZM337.613 301.21C336.003 301.21 334.838 300.89 334.118 300.25C333.408 299.6 333.028 298.535 332.978 297.055C332.968 296.485 332.958 295.955 332.948 295.465C332.948 294.965 332.953 294.465 332.963 293.965C332.973 293.455 332.988 292.905 333.008 292.315H335.303C335.263 293.205 335.238 294.06 335.228 294.88C335.228 295.69 335.253 296.515 335.303 297.355C335.333 298.025 335.518 298.495 335.858 298.765C336.208 299.025 336.793 299.155 337.613 299.155C338.383 299.155 338.933 299.025 339.263 298.765C339.603 298.495 339.793 298.025 339.833 297.355C339.873 296.925 339.893 296.46 339.893 295.96C339.903 295.45 339.898 294.945 339.878 294.445C339.868 293.945 339.853 293.475 339.833 293.035C339.813 292.235 339.653 291.635 339.353 291.235C339.053 290.835 338.563 290.55 337.883 290.38L336.218 289.975C335.398 289.775 334.753 289.485 334.283 289.105C333.813 288.715 333.478 288.195 333.278 287.545C333.078 286.895 332.963 286.07 332.933 285.07C332.923 284.42 332.918 283.745 332.918 283.045C332.928 282.335 332.938 281.62 332.948 280.9C332.978 279.91 333.153 279.115 333.473 278.515C333.793 277.915 334.288 277.48 334.958 277.21C335.638 276.93 336.523 276.79 337.613 276.79C339.173 276.79 340.303 277.11 341.003 277.75C341.703 278.39 342.078 279.45 342.128 280.93C342.148 281.55 342.153 282.235 342.143 282.985C342.133 283.725 342.118 284.505 342.098 285.325H339.788C339.818 284.405 339.833 283.57 339.833 282.82C339.843 282.07 339.833 281.34 339.803 280.63C339.773 279.96 339.593 279.495 339.263 279.235C338.933 278.965 338.373 278.83 337.583 278.83C336.793 278.83 336.228 278.965 335.888 279.235C335.558 279.495 335.373 279.96 335.333 280.63C335.293 281.39 335.273 282.125 335.273 282.835C335.273 283.545 335.293 284.29 335.333 285.07C335.353 285.93 335.473 286.565 335.693 286.975C335.913 287.375 336.293 287.64 336.833 287.77L338.408 288.13C339.348 288.35 340.088 288.655 340.628 289.045C341.178 289.435 341.573 289.955 341.813 290.605C342.063 291.255 342.203 292.065 342.233 293.035C342.253 293.455 342.263 293.9 342.263 294.37C342.263 294.83 342.258 295.29 342.248 295.75C342.238 296.21 342.228 296.645 342.218 297.055C342.158 298.535 341.773 299.6 341.063 300.25C340.363 300.89 339.213 301.21 337.613 301.21ZM215.297 334V312.145H211.637V310H221.312V312.145H217.667V334H215.297ZM223.95 334V310H226.335V320.86H230.76V310H233.145V334H230.76V323.005H226.335V334H223.95ZM237.382 334V310H239.767V334H237.382ZM248.218 334.21C246.608 334.21 245.443 333.89 244.723 333.25C244.013 332.6 243.633 331.535 243.583 330.055C243.573 329.485 243.563 328.955 243.553 328.465C243.553 327.965 243.558 327.465 243.568 326.965C243.578 326.455 243.593 325.905 243.613 325.315H245.908C245.868 326.205 245.843 327.06 245.833 327.88C245.833 328.69 245.858 329.515 245.908 330.355C245.938 331.025 246.123 331.495 246.463 331.765C246.813 332.025 247.398 332.155 248.218 332.155C248.988 332.155 249.538 332.025 249.868 331.765C250.208 331.495 250.398 331.025 250.438 330.355C250.478 329.925 250.498 329.46 250.498 328.96C250.508 328.45 250.503 327.945 250.483 327.445C250.473 326.945 250.458 326.475 250.438 326.035C250.418 325.235 250.258 324.635 249.958 324.235C249.658 323.835 249.168 323.55 248.488 323.38L246.823 322.975C246.003 322.775 245.358 322.485 244.888 322.105C244.418 321.715 244.083 321.195 243.883 320.545C243.683 319.895 243.568 319.07 243.538 318.07C243.528 317.42 243.523 316.745 243.523 316.045C243.533 315.335 243.543 314.62 243.553 313.9C243.583 312.91 243.758 312.115 244.078 311.515C244.398 310.915 244.893 310.48 245.563 310.21C246.243 309.93 247.128 309.79 248.218 309.79C249.778 309.79 250.908 310.11 251.608 310.75C252.308 311.39 252.683 312.45 252.733 313.93C252.753 314.55 252.758 315.235 252.748 315.985C252.738 316.725 252.723 317.505 252.703 318.325H250.393C250.423 317.405 250.438 316.57 250.438 315.82C250.448 315.07 250.438 314.34 250.408 313.63C250.378 312.96 250.198 312.495 249.868 312.235C249.538 311.965 248.978 311.83 248.188 311.83C247.398 311.83 246.833 311.965 246.493 312.235C246.163 312.495 245.978 312.96 245.938 313.63C245.898 314.39 245.878 315.125 245.878 315.835C245.878 316.545 245.898 317.29 245.938 318.07C245.958 318.93 246.078 319.565 246.298 319.975C246.518 320.375 246.898 320.64 247.438 320.77L249.013 321.13C249.953 321.35 250.693 321.655 251.233 322.045C251.783 322.435 252.178 322.955 252.418 323.605C252.668 324.255 252.808 325.065 252.838 326.035C252.858 326.455 252.868 326.9 252.868 327.37C252.868 327.83 252.863 328.29 252.853 328.75C252.843 329.21 252.833 329.645 252.823 330.055C252.763 331.535 252.378 332.6 251.668 333.25C250.968 333.89 249.818 334.21 248.218 334.21ZM267.67 334.21C266.06 334.21 264.895 333.89 264.175 333.25C263.465 332.6 263.085 331.535 263.035 330.055C263.025 329.485 263.015 328.955 263.005 328.465C263.005 327.965 263.01 327.465 263.02 326.965C263.03 326.455 263.045 325.905 263.065 325.315H265.36C265.32 326.205 265.295 327.06 265.285 327.88C265.285 328.69 265.31 329.515 265.36 330.355C265.39 331.025 265.575 331.495 265.915 331.765C266.265 332.025 266.85 332.155 267.67 332.155C268.44 332.155 268.99 332.025 269.32 331.765C269.66 331.495 269.85 331.025 269.89 330.355C269.93 329.925 269.95 329.46 269.95 328.96C269.96 328.45 269.955 327.945 269.935 327.445C269.925 326.945 269.91 326.475 269.89 326.035C269.87 325.235 269.71 324.635 269.41 324.235C269.11 323.835 268.62 323.55 267.94 323.38L266.275 322.975C265.455 322.775 264.81 322.485 264.34 322.105C263.87 321.715 263.535 321.195 263.335 320.545C263.135 319.895 263.02 319.07 262.99 318.07C262.98 317.42 262.975 316.745 262.975 316.045C262.985 315.335 262.995 314.62 263.005 313.9C263.035 312.91 263.21 312.115 263.53 311.515C263.85 310.915 264.345 310.48 265.015 310.21C265.695 309.93 266.58 309.79 267.67 309.79C269.23 309.79 270.36 310.11 271.06 310.75C271.76 311.39 272.135 312.45 272.185 313.93C272.205 314.55 272.21 315.235 272.2 315.985C272.19 316.725 272.175 317.505 272.155 318.325H269.845C269.875 317.405 269.89 316.57 269.89 315.82C269.9 315.07 269.89 314.34 269.86 313.63C269.83 312.96 269.65 312.495 269.32 312.235C268.99 311.965 268.43 311.83 267.64 311.83C266.85 311.83 266.285 311.965 265.945 312.235C265.615 312.495 265.43 312.96 265.39 313.63C265.35 314.39 265.33 315.125 265.33 315.835C265.33 316.545 265.35 317.29 265.39 318.07C265.41 318.93 265.53 319.565 265.75 319.975C265.97 320.375 266.35 320.64 266.89 320.77L268.465 321.13C269.405 321.35 270.145 321.655 270.685 322.045C271.235 322.435 271.63 322.955 271.87 323.605C272.12 324.255 272.26 325.065 272.29 326.035C272.31 326.455 272.32 326.9 272.32 327.37C272.32 327.83 272.315 328.29 272.305 328.75C272.295 329.21 272.285 329.645 272.275 330.055C272.215 331.535 271.83 332.6 271.12 333.25C270.42 333.89 269.27 334.21 267.67 334.21ZM276.081 334V310H284.046V312.145H278.466V320.86H283.746V323.005H278.466V331.855H284.046V334H276.081ZM291.516 334.21C289.906 334.21 288.741 333.89 288.021 333.25C287.311 332.6 286.931 331.535 286.881 330.055C286.871 329.485 286.861 328.955 286.851 328.465C286.851 327.965 286.856 327.465 286.866 326.965C286.876 326.455 286.891 325.905 286.911 325.315H289.206C289.166 326.205 289.141 327.06 289.131 327.88C289.131 328.69 289.156 329.515 289.206 330.355C289.236 331.025 289.421 331.495 289.761 331.765C290.111 332.025 290.696 332.155 291.516 332.155C292.286 332.155 292.836 332.025 293.166 331.765C293.506 331.495 293.696 331.025 293.736 330.355C293.776 329.925 293.796 329.46 293.796 328.96C293.806 328.45 293.801 327.945 293.781 327.445C293.771 326.945 293.756 326.475 293.736 326.035C293.716 325.235 293.556 324.635 293.256 324.235C292.956 323.835 292.466 323.55 291.786 323.38L290.121 322.975C289.301 322.775 288.656 322.485 288.186 322.105C287.716 321.715 287.381 321.195 287.181 320.545C286.981 319.895 286.866 319.07 286.836 318.07C286.826 317.42 286.821 316.745 286.821 316.045C286.831 315.335 286.841 314.62 286.851 313.9C286.881 312.91 287.056 312.115 287.376 311.515C287.696 310.915 288.191 310.48 288.861 310.21C289.541 309.93 290.426 309.79 291.516 309.79C293.076 309.79 294.206 310.11 294.906 310.75C295.606 311.39 295.981 312.45 296.031 313.93C296.051 314.55 296.056 315.235 296.046 315.985C296.036 316.725 296.021 317.505 296.001 318.325H293.691C293.721 317.405 293.736 316.57 293.736 315.82C293.746 315.07 293.736 314.34 293.706 313.63C293.676 312.96 293.496 312.495 293.166 312.235C292.836 311.965 292.276 311.83 291.486 311.83C290.696 311.83 290.131 311.965 289.791 312.235C289.461 312.495 289.276 312.96 289.236 313.63C289.196 314.39 289.176 315.125 289.176 315.835C289.176 316.545 289.196 317.29 289.236 318.07C289.256 318.93 289.376 319.565 289.596 319.975C289.816 320.375 290.196 320.64 290.736 320.77L292.311 321.13C293.251 321.35 293.991 321.655 294.531 322.045C295.081 322.435 295.476 322.955 295.716 323.605C295.966 324.255 296.106 325.065 296.136 326.035C296.156 326.455 296.166 326.9 296.166 327.37C296.166 327.83 296.161 328.29 296.151 328.75C296.141 329.21 296.131 329.645 296.121 330.055C296.061 331.535 295.676 332.6 294.966 333.25C294.266 333.89 293.116 334.21 291.516 334.21ZM304.157 334.21C302.547 334.21 301.382 333.89 300.662 333.25C299.952 332.6 299.572 331.535 299.522 330.055C299.512 329.485 299.502 328.955 299.492 328.465C299.492 327.965 299.497 327.465 299.507 326.965C299.517 326.455 299.532 325.905 299.552 325.315H301.847C301.807 326.205 301.782 327.06 301.772 327.88C301.772 328.69 301.797 329.515 301.847 330.355C301.877 331.025 302.062 331.495 302.402 331.765C302.752 332.025 303.337 332.155 304.157 332.155C304.927 332.155 305.477 332.025 305.807 331.765C306.147 331.495 306.337 331.025 306.377 330.355C306.417 329.925 306.437 329.46 306.437 328.96C306.447 328.45 306.442 327.945 306.422 327.445C306.412 326.945 306.397 326.475 306.377 326.035C306.357 325.235 306.197 324.635 305.897 324.235C305.597 323.835 305.107 323.55 304.427 323.38L302.762 322.975C301.942 322.775 301.297 322.485 300.827 322.105C300.357 321.715 300.022 321.195 299.822 320.545C299.622 319.895 299.507 319.07 299.477 318.07C299.467 317.42 299.462 316.745 299.462 316.045C299.472 315.335 299.482 314.62 299.492 313.9C299.522 312.91 299.697 312.115 300.017 311.515C300.337 310.915 300.832 310.48 301.502 310.21C302.182 309.93 303.067 309.79 304.157 309.79C305.717 309.79 306.847 310.11 307.547 310.75C308.247 311.39 308.622 312.45 308.672 313.93C308.692 314.55 308.697 315.235 308.687 315.985C308.677 316.725 308.662 317.505 308.642 318.325H306.332C306.362 317.405 306.377 316.57 306.377 315.82C306.387 315.07 306.377 314.34 306.347 313.63C306.317 312.96 306.137 312.495 305.807 312.235C305.477 311.965 304.917 311.83 304.127 311.83C303.337 311.83 302.772 311.965 302.432 312.235C302.102 312.495 301.917 312.96 301.877 313.63C301.837 314.39 301.817 315.125 301.817 315.835C301.817 316.545 301.837 317.29 301.877 318.07C301.897 318.93 302.017 319.565 302.237 319.975C302.457 320.375 302.837 320.64 303.377 320.77L304.952 321.13C305.892 321.35 306.632 321.655 307.172 322.045C307.722 322.435 308.117 322.955 308.357 323.605C308.607 324.255 308.747 325.065 308.777 326.035C308.797 326.455 308.807 326.9 308.807 327.37C308.807 327.83 308.802 328.29 308.792 328.75C308.782 329.21 308.772 329.645 308.762 330.055C308.702 331.535 308.317 332.6 307.607 333.25C306.907 333.89 305.757 334.21 304.157 334.21ZM312.568 334V310H314.953V334H312.568ZM323.644 334.21C322.014 334.21 320.839 333.88 320.119 333.22C319.399 332.55 319.029 331.455 319.009 329.935C318.989 328.415 318.974 327.01 318.964 325.72C318.954 324.42 318.949 323.16 318.949 321.94C318.949 320.71 318.954 319.46 318.964 318.19C318.974 316.91 318.989 315.54 319.009 314.08C319.029 312.55 319.399 311.455 320.119 310.795C320.839 310.125 322.014 309.79 323.644 309.79C325.264 309.79 326.429 310.125 327.139 310.795C327.859 311.455 328.234 312.55 328.264 314.08C328.304 315.54 328.329 316.91 328.339 318.19C328.359 319.46 328.369 320.71 328.369 321.94C328.369 323.16 328.359 324.42 328.339 325.72C328.329 327.01 328.304 328.415 328.264 329.935C328.234 331.455 327.859 332.55 327.139 333.22C326.429 333.88 325.264 334.21 323.644 334.21ZM323.644 332.155C324.484 332.155 325.064 332.005 325.384 331.705C325.714 331.395 325.884 330.83 325.894 330.01C325.934 328.47 325.964 327.055 325.984 325.765C326.004 324.475 326.014 323.225 326.014 322.015C326.014 320.805 326.004 319.555 325.984 318.265C325.964 316.965 325.934 315.54 325.894 313.99C325.884 313.17 325.714 312.605 325.384 312.295C325.064 311.985 324.484 311.83 323.644 311.83C322.804 311.83 322.219 311.985 321.889 312.295C321.569 312.605 321.399 313.17 321.379 313.99C321.339 315.5 321.309 316.895 321.289 318.175C321.279 319.455 321.274 320.7 321.274 321.91C321.274 323.12 321.279 324.38 321.289 325.69C321.309 326.99 321.339 328.43 321.379 330.01C321.399 330.83 321.569 331.395 321.889 331.705C322.219 332.005 322.804 332.155 323.644 332.155ZM332.372 334V310H337.247L338.582 317.605L340.592 331.84H341.867L341.567 318.49L341.432 310H343.832V334H338.807L337.352 325.39L335.657 312.13H334.337L334.607 325.015L334.772 334H332.372ZM229.193 367V343H233.723C235.323 343 236.473 343.31 237.173 343.93C237.873 344.55 238.233 345.57 238.253 346.99C238.283 348.89 238.303 350.7 238.313 352.42C238.323 354.14 238.323 355.86 238.313 357.58C238.303 359.29 238.283 361.095 238.253 362.995C238.233 364.425 237.883 365.45 237.203 366.07C236.523 366.69 235.418 367 233.888 367H229.193ZM231.578 364.855H233.888C234.618 364.855 235.128 364.73 235.418 364.48C235.718 364.22 235.873 363.79 235.883 363.19C235.923 361.65 235.948 360.215 235.958 358.885C235.978 357.555 235.988 356.26 235.988 355C235.988 353.73 235.978 352.43 235.958 351.1C235.948 349.77 235.923 348.335 235.883 346.795C235.873 346.195 235.708 345.77 235.388 345.52C235.068 345.27 234.513 345.145 233.723 345.145H231.578V364.855ZM242.332 367V343H244.717V367H242.332ZM248.938 367V343H257.098V345.145H251.323V353.86H256.798V356.005H251.323V367H248.938ZM260.056 367V343H268.216V345.145H262.441V353.86H267.916V356.005H262.441V367H260.056ZM271.173 367V343H279.138V345.145H273.558V353.86H278.838V356.005H273.558V364.855H279.138V367H271.173ZM282.379 367V343H286.894C288.394 343 289.484 343.3 290.164 343.9C290.844 344.5 291.204 345.495 291.244 346.885C291.284 347.825 291.309 348.685 291.319 349.465C291.329 350.245 291.329 350.995 291.319 351.715C291.309 352.425 291.284 353.17 291.244 353.95C291.204 354.88 291.024 355.63 290.704 356.2C290.394 356.76 289.914 357.17 289.264 357.43L291.709 367H289.204L286.999 357.82H284.764V367H282.379ZM284.764 355.675H286.879C287.599 355.675 288.104 355.555 288.394 355.315C288.684 355.065 288.844 354.64 288.874 354.04C288.904 353.13 288.924 352.3 288.934 351.55C288.944 350.79 288.944 350.035 288.934 349.285C288.934 348.525 288.914 347.695 288.874 346.795C288.844 346.185 288.684 345.76 288.394 345.52C288.104 345.27 287.604 345.145 286.894 345.145H284.764V355.675ZM295.108 367V343H303.073V345.145H297.493V353.86H302.773V356.005H297.493V364.855H303.073V367H295.108ZM306.313 367V343H311.188L312.523 350.605L314.533 364.84H315.808L315.508 351.49L315.373 343H317.773V367H312.748L311.293 358.39L309.598 345.13H308.278L308.548 358.015L308.713 367H306.313ZM324.056 367V345.145H320.396V343H330.071V345.145H326.426V367H324.056Z" fill="white"/>
<path d="M184.832 320.016L0.832031 265.016L0.832031 18.5159L63.6344 8.01587" stroke="#A13DB5"/>
<path d="M276.173 203.067C305.998 202.23 334.934 213.275 356.616 233.773C378.297 254.271 390.947 282.542 391.784 312.367C392.621 342.193 381.575 371.129 361.077 392.81C340.579 414.491 312.308 427.141 282.483 427.978L281.917 407.786C306.387 407.1 329.581 396.721 346.399 378.932C363.216 361.144 372.278 337.404 371.592 312.934C370.905 288.464 360.526 265.269 342.738 248.452C324.95 231.634 301.21 222.572 276.74 223.259L276.173 203.067Z" fill="url(#paint0_linear_2443_210)"/>
<path d="M281.938 428C252.109 428.69 223.228 417.502 201.648 396.898C180.067 376.294 167.556 347.961 166.866 318.132C166.176 288.303 177.363 259.422 197.967 237.842C218.571 216.261 246.904 203.75 276.733 203.06L277.2 223.254C252.728 223.82 229.482 234.085 212.577 251.791C195.673 269.496 186.494 293.192 187.06 317.665C187.627 342.138 197.891 365.383 215.597 382.288C233.302 399.193 256.998 408.371 281.471 407.805L281.938 428Z" fill="#610A73"/>
<path d="M386.336 347.031L547.836 390.031L557.836 614.031L530.836 620.531" stroke="url(#paint1_linear_2443_210)"/>
<circle cx="525.336" cy="621.5" r="6.5" fill="url(#paint2_linear_2443_210)"/>
<defs>
<linearGradient id="paint0_linear_2443_210" x1="166.872" y1="318.677" x2="391.784" y2="312.367" gradientUnits="userSpaceOnUse">
<stop stop-color="#996516"/>
<stop offset="0.25" stop-color="#FFCC00"/>
<stop offset="0.5" stop-color="#D4AF37"/>
<stop offset="1" stop-color="#B8860B"/>
</linearGradient>
<linearGradient id="paint1_linear_2443_210" x1="472.086" y1="347.031" x2="472.086" y2="620.531" gradientUnits="userSpaceOnUse">
<stop stop-color="#996516"/>
<stop offset="0.25" stop-color="#FFCC00"/>
<stop offset="0.5" stop-color="#D4AF37"/>
<stop offset="1" stop-color="#B8860B"/>
</linearGradient>
<linearGradient id="paint2_linear_2443_210" x1="525.336" y1="615" x2="525.336" y2="628" gradientUnits="userSpaceOnUse">
<stop stop-color="#996516"/>
<stop offset="0.25" stop-color="#FFCC00"/>
<stop offset="0.5" stop-color="#D4AF37"/>
<stop offset="1" stop-color="#B8860B"/>
</linearGradient>
</defs>
</svg>
