<svg width="328" height="473" viewBox="0 0 328 473" fill="none" xmlns="http://www.w3.org/2000/svg">
<path d="M57 243.5H0.5V53.5H165.5V10" stroke="#9D3AB1"/>
<path d="M103.991 218L102.465 195.6H104.705L105.181 204.028L105.769 215.984H106.875L107.491 204.028L108.513 195.74H112.573L113.595 204.028L114.211 215.984H115.317L115.933 204.028L116.437 195.6H118.649L117.095 218H112.559L111.817 210.65L111.089 197.686H110.025L109.283 210.65L108.527 218H103.991ZM121.895 218V195.6H124.121V205.736H128.251V195.6H130.477V218H128.251V207.738H124.121V218H121.895ZM133.48 218L135.888 195.6H140.466L142.86 218H140.592L140.018 211.672H136.322L135.762 218H133.48ZM136.518 209.67H139.836L139.402 204.924L138.786 197.602H137.582L136.952 204.938L136.518 209.67ZM147.027 218V197.602H143.611V195.6H152.641V197.602H149.239V218H147.027ZM161.214 218V195.6H166.016L167.346 204.77L168.228 215.9H168.998L169.866 204.77L171.21 195.6H175.984V218H173.73V211L174.01 197.602H172.82L171.378 211.574L170.286 217.902H166.87L165.848 211.574L164.392 197.602H163.216L163.496 211V218H161.214ZM179.005 218L181.413 195.6H185.991L188.385 218H186.117L185.543 211.672H181.847L181.287 218H179.005ZM182.043 209.67H185.361L184.927 204.924L184.311 197.602H183.107L182.477 204.938L182.043 209.67ZM191.4 218V195.6H193.724L193.71 200.864L193.542 207.444H194.228L196.244 200.402L197.798 195.6H200.192L196.874 205.624L200.542 218H198.26L195.46 208.326L193.654 212.96V218H191.4ZM202.952 218V195.6H210.386V197.602H205.178V205.736H210.106V207.738H205.178V215.998H210.386V218H202.952ZM217.359 218.196C215.856 218.196 214.769 217.897 214.097 217.3C213.434 216.693 213.079 215.699 213.033 214.318C213.023 213.786 213.014 213.291 213.005 212.834C213.005 212.367 213.009 211.901 213.019 211.434C213.028 210.958 213.042 210.445 213.061 209.894H215.203C215.165 210.725 215.142 211.523 215.133 212.288C215.133 213.044 215.156 213.814 215.203 214.598C215.231 215.223 215.403 215.662 215.721 215.914C216.047 216.157 216.593 216.278 217.359 216.278C218.077 216.278 218.591 216.157 218.899 215.914C219.216 215.662 219.393 215.223 219.431 214.598C219.468 214.197 219.487 213.763 219.487 213.296C219.496 212.82 219.491 212.349 219.473 211.882C219.463 211.415 219.449 210.977 219.431 210.566C219.412 209.819 219.263 209.259 218.983 208.886C218.703 208.513 218.245 208.247 217.611 208.088L216.057 207.71C215.291 207.523 214.689 207.253 214.251 206.898C213.812 206.534 213.499 206.049 213.313 205.442C213.126 204.835 213.019 204.065 212.991 203.132C212.981 202.525 212.977 201.895 212.977 201.242C212.986 200.579 212.995 199.912 213.005 199.24C213.033 198.316 213.196 197.574 213.495 197.014C213.793 196.454 214.255 196.048 214.881 195.796C215.515 195.535 216.341 195.404 217.359 195.404C218.815 195.404 219.869 195.703 220.523 196.3C221.176 196.897 221.526 197.887 221.573 199.268C221.591 199.847 221.596 200.486 221.587 201.186C221.577 201.877 221.563 202.605 221.545 203.37H219.389C219.417 202.511 219.431 201.732 219.431 201.032C219.44 200.332 219.431 199.651 219.403 198.988C219.375 198.363 219.207 197.929 218.899 197.686C218.591 197.434 218.068 197.308 217.331 197.308C216.593 197.308 216.066 197.434 215.749 197.686C215.441 197.929 215.268 198.363 215.231 198.988C215.193 199.697 215.175 200.383 215.175 201.046C215.175 201.709 215.193 202.404 215.231 203.132C215.249 203.935 215.361 204.527 215.567 204.91C215.772 205.283 216.127 205.531 216.631 205.652L218.101 205.988C218.978 206.193 219.669 206.478 220.173 206.842C220.686 207.206 221.055 207.691 221.279 208.298C221.512 208.905 221.643 209.661 221.671 210.566C221.689 210.958 221.699 211.373 221.699 211.812C221.699 212.241 221.694 212.671 221.685 213.1C221.675 213.529 221.666 213.935 221.657 214.318C221.601 215.699 221.241 216.693 220.579 217.3C219.925 217.897 218.852 218.196 217.359 218.196ZM103.197 251V230.602H99.7813V228.6H108.811V230.602H105.409V251H103.197ZM111.273 251V228.6H113.499V238.736H117.629V228.6H119.855V251H117.629V240.738H113.499V251H111.273ZM123.809 251V228.6H126.035V251H123.809ZM133.923 251.196C132.42 251.196 131.333 250.897 130.661 250.3C129.998 249.693 129.644 248.699 129.597 247.318C129.588 246.786 129.578 246.291 129.569 245.834C129.569 245.367 129.574 244.901 129.583 244.434C129.592 243.958 129.606 243.445 129.625 242.894H131.767C131.73 243.725 131.706 244.523 131.697 245.288C131.697 246.044 131.72 246.814 131.767 247.598C131.795 248.223 131.968 248.662 132.285 248.914C132.612 249.157 133.158 249.278 133.923 249.278C134.642 249.278 135.155 249.157 135.463 248.914C135.78 248.662 135.958 248.223 135.995 247.598C136.032 247.197 136.051 246.763 136.051 246.296C136.06 245.82 136.056 245.349 136.037 244.882C136.028 244.415 136.014 243.977 135.995 243.566C135.976 242.819 135.827 242.259 135.547 241.886C135.267 241.513 134.81 241.247 134.175 241.088L132.621 240.71C131.856 240.523 131.254 240.253 130.815 239.898C130.376 239.534 130.064 239.049 129.877 238.442C129.69 237.835 129.583 237.065 129.555 236.132C129.546 235.525 129.541 234.895 129.541 234.242C129.55 233.579 129.56 232.912 129.569 232.24C129.597 231.316 129.76 230.574 130.059 230.014C130.358 229.454 130.82 229.048 131.445 228.796C132.08 228.535 132.906 228.404 133.923 228.404C135.379 228.404 136.434 228.703 137.087 229.3C137.74 229.897 138.09 230.887 138.137 232.268C138.156 232.847 138.16 233.486 138.151 234.186C138.142 234.877 138.128 235.605 138.109 236.37H135.953C135.981 235.511 135.995 234.732 135.995 234.032C136.004 233.332 135.995 232.651 135.967 231.988C135.939 231.363 135.771 230.929 135.463 230.686C135.155 230.434 134.632 230.308 133.895 230.308C133.158 230.308 132.63 230.434 132.313 230.686C132.005 230.929 131.832 231.363 131.795 231.988C131.758 232.697 131.739 233.383 131.739 234.046C131.739 234.709 131.758 235.404 131.795 236.132C131.814 236.935 131.926 237.527 132.131 237.91C132.336 238.283 132.691 238.531 133.195 238.652L134.665 238.988C135.542 239.193 136.233 239.478 136.737 239.842C137.25 240.206 137.619 240.691 137.843 241.298C138.076 241.905 138.207 242.661 138.235 243.566C138.254 243.958 138.263 244.373 138.263 244.812C138.263 245.241 138.258 245.671 138.249 246.1C138.24 246.529 138.23 246.935 138.221 247.318C138.165 248.699 137.806 249.693 137.143 250.3C136.49 250.897 135.416 251.196 133.923 251.196ZM152.078 251.196C150.575 251.196 149.488 250.897 148.816 250.3C148.153 249.693 147.799 248.699 147.752 247.318C147.743 246.786 147.733 246.291 147.724 245.834C147.724 245.367 147.729 244.901 147.738 244.434C147.747 243.958 147.761 243.445 147.78 242.894H149.922C149.885 243.725 149.861 244.523 149.852 245.288C149.852 246.044 149.875 246.814 149.922 247.598C149.95 248.223 150.123 248.662 150.44 248.914C150.767 249.157 151.313 249.278 152.078 249.278C152.797 249.278 153.31 249.157 153.618 248.914C153.935 248.662 154.113 248.223 154.15 247.598C154.187 247.197 154.206 246.763 154.206 246.296C154.215 245.82 154.211 245.349 154.192 244.882C154.183 244.415 154.169 243.977 154.15 243.566C154.131 242.819 153.982 242.259 153.702 241.886C153.422 241.513 152.965 241.247 152.33 241.088L150.776 240.71C150.011 240.523 149.409 240.253 148.97 239.898C148.531 239.534 148.219 239.049 148.032 238.442C147.845 237.835 147.738 237.065 147.71 236.132C147.701 235.525 147.696 234.895 147.696 234.242C147.705 233.579 147.715 232.912 147.724 232.24C147.752 231.316 147.915 230.574 148.214 230.014C148.513 229.454 148.975 229.048 149.6 228.796C150.235 228.535 151.061 228.404 152.078 228.404C153.534 228.404 154.589 228.703 155.242 229.3C155.895 229.897 156.245 230.887 156.292 232.268C156.311 232.847 156.315 233.486 156.306 234.186C156.297 234.877 156.283 235.605 156.264 236.37H154.108C154.136 235.511 154.15 234.732 154.15 234.032C154.159 233.332 154.15 232.651 154.122 231.988C154.094 231.363 153.926 230.929 153.618 230.686C153.31 230.434 152.787 230.308 152.05 230.308C151.313 230.308 150.785 230.434 150.468 230.686C150.16 230.929 149.987 231.363 149.95 231.988C149.913 232.697 149.894 233.383 149.894 234.046C149.894 234.709 149.913 235.404 149.95 236.132C149.969 236.935 150.081 237.527 150.286 237.91C150.491 238.283 150.846 238.531 151.35 238.652L152.82 238.988C153.697 239.193 154.388 239.478 154.892 239.842C155.405 240.206 155.774 240.691 155.998 241.298C156.231 241.905 156.362 242.661 156.39 243.566C156.409 243.958 156.418 244.373 156.418 244.812C156.418 245.241 156.413 245.671 156.404 246.1C156.395 246.529 156.385 246.935 156.376 247.318C156.32 248.699 155.961 249.693 155.298 250.3C154.645 250.897 153.571 251.196 152.078 251.196ZM159.928 251V228.6H167.362V230.602H162.154V238.736H167.082V240.738H162.154V248.998H167.362V251H159.928ZM174.335 251.196C172.832 251.196 171.745 250.897 171.073 250.3C170.41 249.693 170.055 248.699 170.009 247.318C169.999 246.786 169.99 246.291 169.981 245.834C169.981 245.367 169.985 244.901 169.995 244.434C170.004 243.958 170.018 243.445 170.037 242.894H172.179C172.141 243.725 172.118 244.523 172.109 245.288C172.109 246.044 172.132 246.814 172.179 247.598C172.207 248.223 172.379 248.662 172.697 248.914C173.023 249.157 173.569 249.278 174.335 249.278C175.053 249.278 175.567 249.157 175.875 248.914C176.192 248.662 176.369 248.223 176.407 247.598C176.444 247.197 176.463 246.763 176.463 246.296C176.472 245.82 176.467 245.349 176.449 244.882C176.439 244.415 176.425 243.977 176.407 243.566C176.388 242.819 176.239 242.259 175.959 241.886C175.679 241.513 175.221 241.247 174.587 241.088L173.033 240.71C172.267 240.523 171.665 240.253 171.227 239.898C170.788 239.534 170.475 239.049 170.289 238.442C170.102 237.835 169.995 237.065 169.967 236.132C169.957 235.525 169.953 234.895 169.953 234.242C169.962 233.579 169.971 232.912 169.981 232.24C170.009 231.316 170.172 230.574 170.471 230.014C170.769 229.454 171.231 229.048 171.857 228.796C172.491 228.535 173.317 228.404 174.335 228.404C175.791 228.404 176.845 228.703 177.499 229.3C178.152 229.897 178.502 230.887 178.549 232.268C178.567 232.847 178.572 233.486 178.563 234.186C178.553 234.877 178.539 235.605 178.521 236.37H176.365C176.393 235.511 176.407 234.732 176.407 234.032C176.416 233.332 176.407 232.651 176.379 231.988C176.351 231.363 176.183 230.929 175.875 230.686C175.567 230.434 175.044 230.308 174.307 230.308C173.569 230.308 173.042 230.434 172.725 230.686C172.417 230.929 172.244 231.363 172.207 231.988C172.169 232.697 172.151 233.383 172.151 234.046C172.151 234.709 172.169 235.404 172.207 236.132C172.225 236.935 172.337 237.527 172.543 237.91C172.748 238.283 173.103 238.531 173.607 238.652L175.077 238.988C175.954 239.193 176.645 239.478 177.149 239.842C177.662 240.206 178.031 240.691 178.255 241.298C178.488 241.905 178.619 242.661 178.647 243.566C178.665 243.958 178.675 244.373 178.675 244.812C178.675 245.241 178.67 245.671 178.661 246.1C178.651 246.529 178.642 246.935 178.633 247.318C178.577 248.699 178.217 249.693 177.555 250.3C176.901 250.897 175.828 251.196 174.335 251.196ZM186.133 251.196C184.63 251.196 183.543 250.897 182.871 250.3C182.208 249.693 181.854 248.699 181.807 247.318C181.798 246.786 181.788 246.291 181.779 245.834C181.779 245.367 181.784 244.901 181.793 244.434C181.802 243.958 181.816 243.445 181.835 242.894H183.977C183.94 243.725 183.916 244.523 183.907 245.288C183.907 246.044 183.93 246.814 183.977 247.598C184.005 248.223 184.178 248.662 184.495 248.914C184.822 249.157 185.368 249.278 186.133 249.278C186.852 249.278 187.365 249.157 187.673 248.914C187.99 248.662 188.168 248.223 188.205 247.598C188.242 247.197 188.261 246.763 188.261 246.296C188.27 245.82 188.266 245.349 188.247 244.882C188.238 244.415 188.224 243.977 188.205 243.566C188.186 242.819 188.037 242.259 187.757 241.886C187.477 241.513 187.02 241.247 186.385 241.088L184.831 240.71C184.066 240.523 183.464 240.253 183.025 239.898C182.586 239.534 182.274 239.049 182.087 238.442C181.9 237.835 181.793 237.065 181.765 236.132C181.756 235.525 181.751 234.895 181.751 234.242C181.76 233.579 181.77 232.912 181.779 232.24C181.807 231.316 181.97 230.574 182.269 230.014C182.568 229.454 183.03 229.048 183.655 228.796C184.29 228.535 185.116 228.404 186.133 228.404C187.589 228.404 188.644 228.703 189.297 229.3C189.95 229.897 190.3 230.887 190.347 232.268C190.366 232.847 190.37 233.486 190.361 234.186C190.352 234.877 190.338 235.605 190.319 236.37H188.163C188.191 235.511 188.205 234.732 188.205 234.032C188.214 233.332 188.205 232.651 188.177 231.988C188.149 231.363 187.981 230.929 187.673 230.686C187.365 230.434 186.842 230.308 186.105 230.308C185.368 230.308 184.84 230.434 184.523 230.686C184.215 230.929 184.042 231.363 184.005 231.988C183.968 232.697 183.949 233.383 183.949 234.046C183.949 234.709 183.968 235.404 184.005 236.132C184.024 236.935 184.136 237.527 184.341 237.91C184.546 238.283 184.901 238.531 185.405 238.652L186.875 238.988C187.752 239.193 188.443 239.478 188.947 239.842C189.46 240.206 189.829 240.691 190.053 241.298C190.286 241.905 190.417 242.661 190.445 243.566C190.464 243.958 190.473 244.373 190.473 244.812C190.473 245.241 190.468 245.671 190.459 246.1C190.45 246.529 190.44 246.935 190.431 247.318C190.375 248.699 190.016 249.693 189.353 250.3C188.7 250.897 187.626 251.196 186.133 251.196ZM193.983 251V228.6H196.209V251H193.983ZM204.321 251.196C202.8 251.196 201.703 250.888 201.031 250.272C200.359 249.647 200.014 248.625 199.995 247.206C199.976 245.787 199.962 244.476 199.953 243.272C199.944 242.059 199.939 240.883 199.939 239.744C199.939 238.596 199.944 237.429 199.953 236.244C199.962 235.049 199.976 233.771 199.995 232.408C200.014 230.98 200.359 229.958 201.031 229.342C201.703 228.717 202.8 228.404 204.321 228.404C205.833 228.404 206.92 228.717 207.583 229.342C208.255 229.958 208.605 230.98 208.633 232.408C208.67 233.771 208.694 235.049 208.703 236.244C208.722 237.429 208.731 238.596 208.731 239.744C208.731 240.883 208.722 242.059 208.703 243.272C208.694 244.476 208.67 245.787 208.633 247.206C208.605 248.625 208.255 249.647 207.583 250.272C206.92 250.888 205.833 251.196 204.321 251.196ZM204.321 249.278C205.105 249.278 205.646 249.138 205.945 248.858C206.253 248.569 206.412 248.041 206.421 247.276C206.458 245.839 206.486 244.518 206.505 243.314C206.524 242.11 206.533 240.943 206.533 239.814C206.533 238.685 206.524 237.518 206.505 236.314C206.486 235.101 206.458 233.771 206.421 232.324C206.412 231.559 206.253 231.031 205.945 230.742C205.646 230.453 205.105 230.308 204.321 230.308C203.537 230.308 202.991 230.453 202.683 230.742C202.384 231.031 202.226 231.559 202.207 232.324C202.17 233.733 202.142 235.035 202.123 236.23C202.114 237.425 202.109 238.587 202.109 239.716C202.109 240.845 202.114 242.021 202.123 243.244C202.142 244.457 202.17 245.801 202.207 247.276C202.226 248.041 202.384 248.569 202.683 248.858C202.991 249.138 203.537 249.278 204.321 249.278ZM212.467 251V228.6H217.017L218.263 235.698L220.139 248.984H221.329L221.049 236.524L220.923 228.6H223.163V251H218.473L217.115 242.964L215.533 230.588H214.301L214.553 242.614L214.707 251H212.467ZM116.167 284V261.6H120.395C121.888 261.6 122.962 261.889 123.615 262.468C124.268 263.047 124.604 263.999 124.623 265.324C124.651 267.097 124.67 268.787 124.679 270.392C124.688 271.997 124.688 273.603 124.679 275.208C124.67 276.804 124.651 278.489 124.623 280.262C124.604 281.597 124.278 282.553 123.643 283.132C123.008 283.711 121.977 284 120.549 284H116.167ZM118.393 281.998H120.549C121.23 281.998 121.706 281.881 121.977 281.648C122.257 281.405 122.402 281.004 122.411 280.444C122.448 279.007 122.472 277.667 122.481 276.426C122.5 275.185 122.509 273.976 122.509 272.8C122.509 271.615 122.5 270.401 122.481 269.16C122.472 267.919 122.448 266.579 122.411 265.142C122.402 264.582 122.248 264.185 121.949 263.952C121.65 263.719 121.132 263.602 120.395 263.602H118.393V281.998ZM128.43 284V261.6H130.656V284H128.43ZM134.595 284V261.6H142.211V263.602H136.821V271.736H141.931V273.738H136.821V284H134.595ZM144.972 284V261.6H152.588V263.602H147.198V271.736H152.308V273.738H147.198V284H144.972ZM155.348 284V261.6H162.782V263.602H157.574V271.736H162.502V273.738H157.574V281.998H162.782V284H155.348ZM165.807 284V261.6H170.021C171.421 261.6 172.438 261.88 173.073 262.44C173.707 263 174.043 263.929 174.081 265.226C174.118 266.103 174.141 266.906 174.151 267.634C174.16 268.362 174.16 269.062 174.151 269.734C174.141 270.397 174.118 271.092 174.081 271.82C174.043 272.688 173.875 273.388 173.577 273.92C173.287 274.443 172.839 274.825 172.233 275.068L174.515 284H172.177L170.119 275.432H168.033V284H165.807ZM168.033 273.43H170.007C170.679 273.43 171.15 273.318 171.421 273.094C171.691 272.861 171.841 272.464 171.869 271.904C171.897 271.055 171.915 270.28 171.925 269.58C171.934 268.871 171.934 268.166 171.925 267.466C171.925 266.757 171.906 265.982 171.869 265.142C171.841 264.573 171.691 264.176 171.421 263.952C171.15 263.719 170.683 263.602 170.021 263.602H168.033V273.43ZM177.687 284V261.6H185.121V263.602H179.913V271.736H184.841V273.738H179.913V281.998H185.121V284H177.687ZM188.145 284V261.6H192.695L193.941 268.698L195.817 281.984H197.007L196.727 269.524L196.601 261.6H198.841V284H194.151L192.793 275.964L191.211 263.588H189.979L190.231 275.614L190.385 284H188.145ZM204.706 284V263.602H201.29V261.6H210.32V263.602H206.918V284H204.706Z" fill="white"/>
<path d="M159.454 128.155C189.28 127.319 218.216 138.364 239.897 158.862C261.578 179.36 274.228 207.631 275.065 237.456C275.902 267.281 264.856 296.217 244.359 317.898C223.861 339.58 195.589 352.23 165.764 353.067L165.198 332.875C189.668 332.188 212.863 321.809 229.68 304.021C246.497 286.233 255.56 262.492 254.873 238.023C254.187 213.553 243.808 190.358 226.019 173.54C208.231 156.723 184.491 147.661 160.021 148.347L159.454 128.155Z" fill="url(#paint0_linear_2440_213)"/>
<path d="M165.212 353.081C135.383 353.772 106.501 342.584 84.9211 321.98C63.3408 301.376 50.8294 273.043 50.1392 243.214C49.449 213.385 60.6365 184.504 81.2407 162.923C101.845 141.343 130.178 128.832 160.007 128.141L160.474 148.336C136.001 148.902 112.755 159.167 95.8507 176.873C78.9462 194.578 69.7674 218.274 70.3337 242.747C70.9 267.22 81.1649 290.465 98.8703 307.37C116.576 324.274 140.271 333.453 164.744 332.887L165.212 353.081Z" fill="#610A73"/>
<circle cx="165.5" cy="6.5" r="6.5" fill="#A13DB5"/>
<path d="M277 244H327V368.5V428H163.5V466.5" stroke="url(#paint1_linear_2440_213)"/>
<circle cx="163.5" cy="466.5" r="6.5" fill="url(#paint2_linear_2440_213)"/>
<defs>
<linearGradient id="paint0_linear_2440_213" x1="50.1537" y1="243.766" x2="275.065" y2="237.456" gradientUnits="userSpaceOnUse">
<stop stop-color="#996516"/>
<stop offset="0.25" stop-color="#FFCC00"/>
<stop offset="0.5" stop-color="#D4AF37"/>
<stop offset="1" stop-color="#B8860B"/>
</linearGradient>
<linearGradient id="paint1_linear_2440_213" x1="245.25" y1="244" x2="245.25" y2="466.5" gradientUnits="userSpaceOnUse">
<stop stop-color="#996516"/>
<stop offset="0.25" stop-color="#FFCC00"/>
<stop offset="0.5" stop-color="#D4AF37"/>
<stop offset="1" stop-color="#B8860B"/>
</linearGradient>
<linearGradient id="paint2_linear_2440_213" x1="163.5" y1="460" x2="163.5" y2="473" gradientUnits="userSpaceOnUse">
<stop stop-color="#996516"/>
<stop offset="0.25" stop-color="#FFCC00"/>
<stop offset="0.5" stop-color="#D4AF37"/>
<stop offset="1" stop-color="#B8860B"/>
</linearGradient>
</defs>
</svg>
