<svg width="174" height="158" viewBox="0 0 174 158" fill="none" xmlns="http://www.w3.org/2000/svg">
<path d="M28.9426 114.103C29.2824 113.755 29.4984 113.228 29.5494 112.65C29.6003 112.071 29.4823 111.486 29.2105 111.034C28.9471 110.596 28.5277 110.259 27.9073 110.156C19.7717 108.818 11.9295 106.006 4.58243 101.903C4.17844 101.677 3.67493 101.705 3.18521 101.968C2.69521 102.231 2.29041 102.696 2.11516 103.202C1.70751 104.381 2.27472 105.502 3.25796 106.051C10.8843 110.31 19.0863 113.139 27.5279 114.528C28.1507 114.631 28.6141 114.439 28.9426 114.103Z" fill="#610A73" stroke="url(#paint0_linear_110_32)"/>
<path d="M49.9481 107.558C51.1005 106.988 51.3039 105.715 50.8864 104.667C50.6789 104.146 50.3325 103.729 49.9223 103.512C49.5769 103.329 49.1496 103.268 48.6517 103.452L48.4337 103.546C44.0922 105.695 39.6855 107.671 35.2177 109.471C34.6094 109.716 34.2824 110.138 34.1429 110.606C33.9996 111.087 34.0457 111.653 34.2541 112.174C34.4626 112.694 34.8188 113.132 35.251 113.38C35.6706 113.62 36.1928 113.698 36.7954 113.455C41.2417 111.664 45.6272 109.698 49.9481 107.558Z" fill="#610A73" stroke="url(#paint1_linear_110_32)"/>
<path d="M67.6534 91.3002C68.3572 90.0895 67.9063 88.8432 67.1053 88.1829C66.7037 87.8518 66.2381 87.6899 65.8095 87.7368C65.3939 87.7823 64.9499 88.0308 64.5897 88.6504C62.6203 92.0382 59.9961 94.8118 56.7485 96.6786C55.6185 97.3284 55.4309 98.6663 55.849 99.7203C56.0565 100.243 56.3955 100.642 56.7846 100.835C57.1555 101.02 57.6362 101.05 58.2145 100.718C62.044 98.5165 65.307 95.3364 67.6534 91.3002Z" fill="#610A73" stroke="url(#paint2_linear_110_32)"/>
<path d="M82.6485 69.3969C83.4866 68.4686 83.7014 67.2187 83.0087 66.2519C82.7236 65.8542 82.2315 65.5561 81.7039 65.4712C81.1832 65.3875 80.6838 65.5185 80.3429 65.896C76.4544 70.2019 73.2889 75.0481 70.8169 80.503C70.5922 80.9987 70.6326 81.5899 70.8663 82.13C71.1028 82.6762 71.5098 83.1058 71.9299 83.2862C72.9113 83.7076 73.9297 83.1414 74.4615 81.968C76.5581 77.3412 79.3468 73.0531 82.6485 69.3969Z" fill="#610A73" stroke="url(#paint3_linear_110_32)"/>
<path d="M104.141 50.8748C104.326 50.2974 104.317 49.6575 104.121 49.1646C103.689 48.0819 102.602 47.6817 101.559 48.0944C96.9601 49.9124 92.6535 52.5487 88.7691 55.8499C87.7554 56.7114 87.8546 57.9738 88.4835 58.8478C88.7989 59.2862 89.2304 59.596 89.6862 59.697C90.1287 59.795 90.6419 59.7079 91.1616 59.2662C94.8087 56.1665 98.8201 53.7864 103.142 52.078L103.141 52.0767C103.601 51.8949 103.956 51.4507 104.141 50.8748Z" fill="#610A73" stroke="url(#paint4_linear_110_32)"/>
<path d="M122.522 48.6107C122.859 48.2701 123.074 47.7475 123.125 47.1683C123.176 46.59 123.058 46.0009 122.785 45.5406C122.521 45.0935 122.1 44.748 121.482 44.6356C118.572 44.1066 115.623 44.0667 112.684 44.443C112.05 44.5241 111.639 44.8474 111.395 45.2729C111.144 45.7107 111.059 46.282 111.142 46.8507C111.225 47.4198 111.472 47.9435 111.833 48.2965C112.182 48.6376 112.663 48.8451 113.294 48.7644C115.922 48.4277 118.517 48.5371 121.12 49.0102C121.74 49.1228 122.198 48.9387 122.522 48.6107Z" fill="#610A73" stroke="url(#paint5_linear_110_32)"/>
<path d="M142.395 52.0259C142.801 50.8534 142.236 49.7079 141.258 49.1805C137.673 47.2467 133.893 45.928 129.968 45.121C129.513 45.0274 129.024 45.2073 128.61 45.6063C128.197 46.0051 127.917 46.5718 127.868 47.1181C127.757 48.3505 128.562 49.2794 129.627 49.4984C133.214 50.236 136.649 51.5562 139.921 53.3211C140.334 53.544 140.841 53.5156 141.327 53.2579C141.814 52.9998 142.217 52.5402 142.395 52.0259Z" fill="#610A73" stroke="url(#paint6_linear_110_32)"/>
<path d="M156.304 59.6417C156.615 59.1741 156.771 58.6225 156.728 58.1129C156.686 57.6212 156.458 57.1374 155.934 56.7523C153.414 54.8995 150.755 53.294 147.983 51.9639C147.407 51.6873 146.92 51.7399 146.529 51.9652C146.123 52.1999 145.788 52.6425 145.601 53.1872C145.218 54.2989 145.501 55.5542 146.603 56.0828C149.045 57.2546 151.357 58.6406 153.577 60.2726C154.101 60.6582 154.618 60.72 155.079 60.59C155.554 60.4559 155.994 60.1088 156.304 59.6417Z" fill="#610A73" stroke="url(#paint7_linear_110_32)"/>
<path d="M166.705 66.2544C167.149 65.3311 167.045 64.5832 166.709 63.8734C166.345 63.1041 165.739 62.4257 165.128 61.6197C164.153 60.332 163.267 58.944 162.541 57.4511C161.047 54.376 160.149 51.0971 159.803 47.6366C159.73 46.9073 159.436 46.4672 159.086 46.2183C158.724 45.9598 158.24 45.8636 157.741 45.9544C156.803 46.1251 155.952 46.9189 155.966 48.1909L155.981 48.4517C156.289 51.5355 157.025 54.5919 158.169 57.4184L158.404 57.9811C158.862 59.05 159.386 60.0929 159.956 61.1035L160.459 61.9946L159.498 61.8533C158.394 61.6911 157.277 61.6702 156.142 61.742C153.355 61.9185 150.712 62.9616 148.337 64.6138L147.865 64.952C147.454 65.2563 147.214 65.7914 147.168 66.4016C147.122 67.015 147.28 67.6273 147.573 68.0359C148.226 68.9478 149.356 69.0341 150.306 68.3307C152.758 66.5146 155.784 65.8016 158.693 66.1589C159.407 66.2465 160.204 66.5265 160.975 66.8101C161.767 67.1015 162.546 67.4023 163.299 67.583C164.05 67.7635 164.714 67.8084 165.275 67.6322C165.815 67.4622 166.312 67.0697 166.705 66.2544Z" fill="#610A73" stroke="url(#paint8_linear_110_32)"/>
<defs>
<linearGradient id="paint0_linear_110_32" x1="29.595" y1="114.305" x2="1.14973" y2="104.467" gradientUnits="userSpaceOnUse">
<stop stop-color="#996516"/>
<stop offset="0.25" stop-color="#FFCC00"/>
<stop offset="0.5" stop-color="#D4AF37"/>
<stop offset="1" stop-color="#B8860B"/>
</linearGradient>
<linearGradient id="paint1_linear_110_32" x1="49.7321" y1="111.517" x2="35.054" y2="106.44" gradientUnits="userSpaceOnUse">
<stop stop-color="#996516"/>
<stop offset="0.25" stop-color="#FFCC00"/>
<stop offset="0.5" stop-color="#D4AF37"/>
<stop offset="1" stop-color="#B8860B"/>
</linearGradient>
<linearGradient id="paint2_linear_110_32" x1="66.4701" y1="96.4049" x2="56.8935" y2="93.0927" gradientUnits="userSpaceOnUse">
<stop stop-color="#996516"/>
<stop offset="0.25" stop-color="#FFCC00"/>
<stop offset="0.5" stop-color="#D4AF37"/>
<stop offset="1" stop-color="#B8860B"/>
</linearGradient>
<linearGradient id="paint3_linear_110_32" x1="81.0971" y1="76.1827" x2="72.7723" y2="73.3034" gradientUnits="userSpaceOnUse">
<stop stop-color="#996516"/>
<stop offset="0.25" stop-color="#FFCC00"/>
<stop offset="0.5" stop-color="#D4AF37"/>
<stop offset="1" stop-color="#B8860B"/>
</linearGradient>
<linearGradient id="paint4_linear_110_32" x1="102.687" y1="56.6069" x2="89.2541" y2="51.9607" gradientUnits="userSpaceOnUse">
<stop stop-color="#996516"/>
<stop offset="0.25" stop-color="#FFCC00"/>
<stop offset="0.5" stop-color="#D4AF37"/>
<stop offset="1" stop-color="#B8860B"/>
</linearGradient>
<linearGradient id="paint5_linear_110_32" x1="123.028" y1="49.2366" x2="110.911" y2="45.0454" gradientUnits="userSpaceOnUse">
<stop stop-color="#996516"/>
<stop offset="0.25" stop-color="#FFCC00"/>
<stop offset="0.5" stop-color="#D4AF37"/>
<stop offset="1" stop-color="#B8860B"/>
</linearGradient>
<linearGradient id="paint6_linear_110_32" x1="142.783" y1="52.4315" x2="127.289" y2="47.0726" gradientUnits="userSpaceOnUse">
<stop stop-color="#996516"/>
<stop offset="0.25" stop-color="#FFCC00"/>
<stop offset="0.5" stop-color="#D4AF37"/>
<stop offset="1" stop-color="#B8860B"/>
</linearGradient>
<linearGradient id="paint7_linear_110_32" x1="157.181" y1="58.8966" x2="144.603" y2="54.5464" gradientUnits="userSpaceOnUse">
<stop stop-color="#996516"/>
<stop offset="0.25" stop-color="#FFCC00"/>
<stop offset="0.5" stop-color="#D4AF37"/>
<stop offset="1" stop-color="#B8860B"/>
</linearGradient>
<linearGradient id="paint8_linear_110_32" x1="168.165" y1="63.6291" x2="149.715" y2="57.2477" gradientUnits="userSpaceOnUse">
<stop stop-color="#996516"/>
<stop offset="0.25" stop-color="#FFCC00"/>
<stop offset="0.5" stop-color="#D4AF37"/>
<stop offset="1" stop-color="#B8860B"/>
</linearGradient>
</defs>
</svg>
