<svg width="16" height="16" viewBox="0 0 16 16" fill="none" xmlns="http://www.w3.org/2000/svg">
<g clip-path="url(#clip0_138_1786)">
<path d="M8 16C12.4183 16 16 12.4183 16 8C16 3.58172 12.4183 0 8 0C3.58172 0 0 3.58172 0 8C0 12.4183 3.58172 16 8 16Z" fill="url(#paint0_linear_138_1786)"/>
<path d="M15.9431 8.95672C15.5797 12.0086 13.4981 14.533 10.6931 15.5355L3.97438 8.81672L3.71875 8.05109L3.79187 7.35859L4.22281 6.97547L5.09375 6.87984L5.65063 7.13703L6.95219 8.43766L10.3494 5.04109L11.2697 4.80859L12.0275 5.04109L15.9431 8.95672Z" fill="url(#paint1_linear_138_1786)"/>
<path d="M10.3491 5.0407L6.95187 8.43726L5.65031 7.1357C5.42766 6.91338 5.12588 6.78852 4.81125 6.78852C4.49661 6.78852 4.19483 6.91338 3.97218 7.1357C3.74987 7.35835 3.625 7.66012 3.625 7.97476C3.625 8.2894 3.74987 8.59118 3.97218 8.81382L6.03875 10.8804C6.06093 10.9069 6.08437 10.9329 6.10937 10.9579C6.33322 11.1805 6.63605 11.3054 6.95172 11.3054C7.26738 11.3054 7.57021 11.1805 7.79406 10.9579C7.81906 10.9329 7.8425 10.9069 7.86468 10.8804L12.0272 6.71851C12.2495 6.49586 12.3744 6.19409 12.3744 5.87945C12.3744 5.56481 12.2495 5.26304 12.0272 5.04039C11.8045 4.81811 11.5027 4.6933 11.1881 4.69336C10.8734 4.69342 10.5717 4.81834 10.3491 5.0407Z" fill="white"/>
</g>
<defs>
<linearGradient id="paint0_linear_138_1786" x1="8" y1="0" x2="8" y2="16" gradientUnits="userSpaceOnUse">
<stop stop-color="#996516"/>
<stop offset="0.25" stop-color="#FFCC00"/>
<stop offset="0.5" stop-color="#D4AF37"/>
<stop offset="1" stop-color="#B8860B"/>
</linearGradient>
<linearGradient id="paint1_linear_138_1786" x1="9.83094" y1="4.80859" x2="9.83094" y2="15.5355" gradientUnits="userSpaceOnUse">
<stop stop-color="#996516"/>
<stop offset="0.25" stop-color="#FFCC00"/>
<stop offset="0.5" stop-color="#D4AF37"/>
<stop offset="1" stop-color="#B8860B"/>
</linearGradient>
<clipPath id="clip0_138_1786">
<rect width="16" height="16" fill="white"/>
</clipPath>
</defs>
</svg>
