<svg width="40" height="51" viewBox="0 0 40 51" fill="none" xmlns="http://www.w3.org/2000/svg">
<path d="M10.4198 40.2002C6.34447 28.2249 5.50206 15.7645 8.09053 3.6081C8.33847 2.44308 7.65603 1.26618 5.75033 0.925497C4.18452 0.645389 1.87859 1.27442 1.62879 2.44865C-1.13427 15.4259 -0.397497 28.5615 3.95818 41.3599C4.89037 44.099 11.3524 42.9398 10.4198 40.2002Z" fill="url(#paint0_linear_2378_542)"/>
<path d="M9.11537 46.3389C4.80362 46.3389 4.79655 50.7004 9.11537 50.7004C13.4271 50.7004 13.4342 46.3389 9.11537 46.3389Z" fill="url(#paint1_linear_2378_542)"/>
<path d="M38.0908 6.23977C36.1944 3.14719 31.7442 0.834585 26.7259 0.201676C23.9625 -0.146762 21.091 -0.0660502 18.4631 0.619681C15.1256 1.49078 12.4292 4.21284 15.744 6.16851C18.1862 7.60952 21.5415 6.14259 21.5419 4.52785C21.5571 4.52518 21.5716 4.52107 21.5865 4.51841C22.0694 4.43191 22.5206 4.37931 23.0161 4.35605C23.9907 4.3105 24.9307 4.38127 25.8685 4.54459C27.7656 4.87485 29.579 5.57365 30.8031 6.58989C34.6432 9.77672 31.1601 14.304 28.4365 17.2321C25.0532 20.8698 20.9954 24.2134 18.8283 28.2772C16.6173 32.4241 16.528 36.9935 18.2874 41.2142C19.4154 43.9201 25.8815 42.7718 24.7491 40.0548C23.1713 36.2704 23.4572 32.229 25.7709 28.5895C28.1565 24.8371 32.3596 21.7002 35.3546 18.1637C38.363 14.6122 40.5199 10.2013 38.0908 6.23977Z" fill="url(#paint2_linear_2378_542)"/>
<path d="M24.5591 47.8291C24.424 47.5586 24.1931 47.3248 23.8663 47.1273C23.5629 46.9146 23.2032 46.7643 22.7881 46.6764C22.3887 46.54 21.9587 46.4772 21.4971 46.4886C21.2004 46.5145 20.9033 46.5405 20.6063 46.5666C20.0389 46.6701 19.546 46.8572 19.128 47.1273C18.9534 47.2744 18.7787 47.4215 18.6041 47.5688C18.301 47.909 18.1484 48.2759 18.1465 48.6694V48.8186C18.129 49.1189 18.2255 49.399 18.4351 49.659C18.5703 49.9294 18.8011 50.1632 19.128 50.3607C19.4314 50.5734 19.791 50.7236 20.2061 50.8116C20.6055 50.948 21.0355 51.0108 21.4967 50.9994C21.7938 50.9735 22.0905 50.9476 22.3876 50.9214C22.9553 50.8179 23.4482 50.6309 23.8659 50.3607C24.0405 50.2136 24.2151 50.0665 24.3897 49.9192C24.6927 49.579 24.8454 49.2122 24.8472 48.8186V48.6694C24.8651 48.3689 24.7691 48.0891 24.5591 47.8291Z" fill="url(#paint3_linear_2378_542)"/>
<defs>
<linearGradient id="paint0_linear_2378_542" x1="5.25579" y1="0.859375" x2="5.25579" y2="42.924" gradientUnits="userSpaceOnUse">
<stop stop-color="#996516"/>
<stop offset="0.25" stop-color="#FFCC00"/>
<stop offset="0.5" stop-color="#D4AF37"/>
<stop offset="1" stop-color="#B8860B"/>
</linearGradient>
<linearGradient id="paint1_linear_2378_542" x1="9.11537" y1="46.3389" x2="9.11537" y2="50.7004" gradientUnits="userSpaceOnUse">
<stop stop-color="#996516"/>
<stop offset="0.25" stop-color="#FFCC00"/>
<stop offset="0.5" stop-color="#D4AF37"/>
<stop offset="1" stop-color="#B8860B"/>
</linearGradient>
<linearGradient id="paint2_linear_2378_542" x1="26.686" y1="0" x2="26.686" y2="42.7576" gradientUnits="userSpaceOnUse">
<stop stop-color="#996516"/>
<stop offset="0.25" stop-color="#FFCC00"/>
<stop offset="0.5" stop-color="#D4AF37"/>
<stop offset="1" stop-color="#B8860B"/>
</linearGradient>
<linearGradient id="paint3_linear_2378_542" x1="21.4969" y1="46.4873" x2="21.4969" y2="51.0007" gradientUnits="userSpaceOnUse">
<stop stop-color="#996516"/>
<stop offset="0.25" stop-color="#FFCC00"/>
<stop offset="0.5" stop-color="#D4AF37"/>
<stop offset="1" stop-color="#B8860B"/>
</linearGradient>
</defs>
</svg>
