<svg width="120" height="103" viewBox="0 0 120 103" fill="none" xmlns="http://www.w3.org/2000/svg">
<path d="M29.7909 45.2578C30.115 42.4284 30.395 39.5938 30.63 36.754C30.8535 33.9135 31.0315 31.0683 31.1621 28.2186L31.1653 28.1494C31.2121 27.1289 32.0815 26.3395 33.1072 26.386C33.8078 26.4179 34.401 26.834 34.6911 27.4182C35.5219 29.1007 36.2071 30.8429 36.7593 32.6143C37.9964 36.6271 38.4888 40.7624 38.7843 44.8098C39.0381 48.4307 39.0588 52.026 39.0816 55.5789L39.1531 66.2411L35.6887 65.2966C40.9477 56.2936 44.066 46.0748 44.7607 35.7188C44.8372 34.5797 45.8273 33.7179 46.9724 33.7939C47.8198 33.8502 48.5146 34.4045 48.7875 35.1506L48.7938 35.1695C49.9915 38.4588 51.0296 41.8078 51.8906 45.2028C53.2628 50.604 54.198 56.1153 54.694 61.6696L50.6816 60.7723C54.0962 54.9349 56.7294 48.6403 58.4838 42.1136C58.7937 40.9607 59.9843 40.2761 61.143 40.5844C61.2982 40.6257 61.445 40.6827 61.582 40.7532L61.603 40.7647C62.544 41.2566 63.392 41.9908 64.0174 42.8086C64.6497 43.6273 65.0812 44.5032 65.4027 45.3458C66.0362 47.0398 66.2976 48.6327 66.5746 50.1188C66.8417 51.5979 67.0991 52.9964 67.5274 54.1431C67.74 54.714 67.9936 55.2092 68.2854 55.5986C68.5786 55.9895 68.9017 56.2784 69.2994 56.5018L66.2608 57.5028C68.301 52.9616 70.1393 48.329 71.7668 43.6242L71.7686 43.6189C72.1557 42.5001 73.3811 41.9052 74.5057 42.2904C75.0172 42.4655 75.4215 42.8162 75.6719 43.2486C77.1017 45.7235 78.2424 48.3588 79.0655 51.0903C79.5756 52.782 79.9376 54.5244 80.1592 56.2796L78.0871 54.5177C78.2256 54.5189 78.3699 54.5165 78.6035 54.381C78.8313 54.2608 79.1047 54.0121 79.3599 53.7061C79.6167 53.397 79.8538 53.0185 80.0605 52.6216C80.2868 52.1713 80.5084 51.6677 80.7611 51.1249C81.1768 50.2308 81.6873 49.3107 82.3987 48.5609C82.5747 48.3736 82.7649 48.2012 82.9566 48.0403C83.0577 47.9643 83.1575 47.8893 83.256 47.8152C83.3518 47.7434 83.4904 47.6618 83.6047 47.592C84.0866 47.3195 84.5614 47.1613 85.0058 47.1005C85.8934 46.9629 86.6695 47.1236 87.2887 47.4108C87.909 47.7003 88.3633 48.1812 88.5548 48.6557C88.6232 48.8316 88.6627 48.9827 88.6611 49.1242C88.6676 49.2606 88.6559 49.3703 88.6165 49.4643C88.5479 49.6481 88.4485 49.7369 88.3345 49.7714C88.0975 49.8442 87.8321 49.684 87.5372 49.6386C87.3952 49.6106 87.2329 49.613 87.055 49.6176C86.8739 49.6253 86.6454 49.6472 86.3848 49.7156C86.1273 49.782 85.8401 49.9035 85.6251 50.0612C85.5702 50.0986 85.5288 50.145 85.484 50.1822C85.4502 50.2298 85.4208 50.2491 85.3499 50.3352C85.2247 50.4733 85.1039 50.6347 84.9816 50.8281C84.708 51.2487 84.4599 51.808 84.2037 52.4674C84.0683 52.8166 83.932 53.1679 83.7952 53.5207L83.5581 54.0956C83.4709 54.2946 83.3708 54.5171 83.2631 54.7231C82.8318 55.558 82.2871 56.3822 81.4657 57.1166C81.0555 57.4802 80.5691 57.8183 79.9967 58.068C79.4275 58.3188 78.7692 58.4664 78.1216 58.4674L78.1065 58.4674C77.155 58.4689 76.3667 57.7707 76.2324 56.8611C76.1697 56.4398 76.1128 56.0317 76.041 55.6286C75.4204 51.9703 74.1421 48.413 72.305 45.182L75.4438 44.8801C73.7468 49.6873 71.8666 54.4232 69.8076 59.0775C69.4272 59.9373 68.4184 60.3275 67.5542 59.949C67.5087 59.9292 67.4646 59.9075 67.4218 59.8842L67.3981 59.8712C66.5226 59.3921 65.7451 58.6965 65.1638 57.9227C64.5768 57.1481 64.1671 56.3153 63.8556 55.503C63.2405 53.8711 62.9634 52.2992 62.6698 50.8197C62.3834 49.3469 62.1011 47.9356 61.6315 46.7687C61.3981 46.188 61.1185 45.6809 60.7941 45.2835C60.4686 44.8846 60.1056 44.5921 59.6693 44.3772L62.4578 43.1714C62.2218 44.1051 61.9759 45.0369 61.711 45.9638C60.4804 50.2947 58.8501 54.7353 56.7336 58.5922C55.9476 60.0326 55.1263 61.4536 54.2668 62.8553L54.225 62.9235C53.6553 63.8525 52.4365 64.1462 51.5026 63.5794C50.9345 63.2347 50.6022 62.6393 50.5576 62.0258C49.9861 53.3333 48.035 44.7123 45.0893 36.4899L48.6855 36C48.4352 39.2742 47.9499 42.5275 47.2267 45.7215C45.5169 53.2067 42.6892 60.4679 38.7352 67.0897L38.7296 67.0992C38.2569 67.8908 37.2288 68.1512 36.4331 67.681C35.9044 67.3685 35.6116 66.8091 35.6133 66.2386C35.628 63.5611 35.6426 60.8818 35.6573 58.2048C35.6849 53.1038 35.815 48.0429 35.4079 43.0816C34.9958 38.1345 33.9877 33.2505 31.7909 28.912L34.4262 28.3142C34.1208 36.3279 33.4172 44.32 32.3267 52.2565C31.3419 59.4674 29.8172 66.1834 27.7437 71.948C26.7827 74.598 25.9421 74.2105 26.4289 71.0234C27.098 66.504 27.7691 61.7762 28.3746 57.0693C28.8686 53.1994 29.4477 49.2364 29.848 45.2991C29.8297 45.286 29.8127 45.2735 29.7909 45.2578Z" fill="url(#paint0_linear_2378_908)"/>
<path d="M19.1761 43.4479L19.1958 44.5611L19.1844 45.6744L19.1596 47.9002L19.0719 50.1242L19.0259 51.2357L18.9499 52.3458L18.7948 54.5649L18.5781 56.7789L18.4664 57.8851L18.326 58.9884L18.041 61.1936C17.1706 67.0579 15.9117 72.8683 14.1305 78.5256C12.2835 84.5365 9.86066 90.389 7.07532 96.0206L5.63149 98.821L4.1036 101.578L1.07533 98.3557C7.99455 94.9202 14.93 91.5175 21.8873 88.1591C28.8492 84.8102 35.8278 81.4952 42.832 78.2334C56.8428 71.715 70.9458 65.3875 85.1544 59.2922C90.175 57.1379 95.2082 55.0118 100.251 52.9056L107.824 49.77L115.416 46.6725L115.487 52.0182C108.524 49.4139 101.585 46.7432 94.6769 43.9946C87.7752 41.2304 80.8975 38.4059 74.0554 35.4971C67.2186 32.5765 60.4049 29.6016 53.6322 26.5361C46.8634 23.4627 40.1164 20.3408 33.4161 17.1222C30.6478 15.8007 27.9018 14.399 25.1712 12.9898C22.4537 11.5541 19.7444 10.1244 17.0888 8.66584C15.816 7.9694 14.6714 7.30359 13.6446 6.66792C13.1375 6.3531 12.6329 6.03321 12.2055 5.74372C11.877 5.50009 11.5831 5.25022 11.3072 4.98722C10.7578 4.46445 10.2648 3.87606 9.71528 3.29428C9.1707 2.71245 8.58107 2.15561 7.9916 1.67288C6.25134 0.264681 5.54207 -0.0285902 6.72512 0.0225838C7.02348 0.0387601 7.44593 0.0776897 8.02379 0.154371C8.5998 0.232388 9.33942 0.349373 10.2255 0.564507C11.1093 0.777751 12.1308 1.10005 13.191 1.52921C13.4562 1.63601 13.7239 1.74887 13.9933 1.86687C14.2178 1.96353 14.447 2.06219 14.681 2.16294C15.1174 2.35061 15.5691 2.55035 16.0356 2.76219C20.7552 4.91217 25.8226 7.4337 30.6102 9.83735C41.6278 15.3842 52.776 20.6355 64.0584 25.5622C75.3394 30.4917 86.7354 35.1406 98.2599 39.4559C104.614 41.8552 111.291 44.1725 117.408 46.6682L117.492 46.7025L117.644 46.7646C119.07 47.3476 119.751 48.9701 119.165 50.3886C118.859 51.1285 118.259 51.6702 117.562 51.9331C97.7878 59.3052 78.3895 67.9586 59.0104 76.3756C44.5847 82.6404 30.2682 89.3517 16.0201 96.0861L9.51584 99.1759L3.02581 102.29L3.00115 102.302C1.96129 102.801 0.711766 102.366 0.210242 101.332C-0.101591 100.689 -0.0439817 99.9534 0.289061 99.3778C6.06671 89.5584 10.2021 78.7614 12.4774 67.5669C14.7673 56.377 15.2981 44.8103 14.0107 33.4313C13.7244 30.6907 13.3091 28.0059 12.8876 25.3681C12.4189 22.7393 11.9475 20.1535 11.3752 17.6423C10.2681 12.6095 9.0017 7.82163 7.66019 3.29865C7.3496 2.24643 7.2128 1.65381 7.10798 1.37301C7.01442 1.08698 7.01572 1.08822 7.20205 1.28823C7.38033 1.47737 7.78109 1.90966 8.38376 2.19959C8.67693 2.34629 8.9923 2.42145 9.21344 2.51727C9.32559 2.56757 9.41672 2.63078 9.49519 2.72816C9.5229 2.7447 9.59737 2.90843 9.66178 3.03871C9.72625 3.17417 9.7927 3.3139 9.86118 3.45781C12.9858 9.9733 15.4175 17.2214 17.0206 24.6162C17.6493 27.6619 18.1633 30.7771 18.4858 33.9246C18.8043 37.0715 19.0313 40.24 19.0926 43.394C19.1208 43.4108 19.147 43.4267 19.1761 43.4479Z" fill="url(#paint1_linear_2378_908)"/>
<defs>
<linearGradient id="paint0_linear_2378_908" x1="88.6599" y1="50.2063" x2="26.349" y2="50.0335" gradientUnits="userSpaceOnUse">
<stop stop-color="#996516"/>
<stop offset="0.25" stop-color="#FFCC00"/>
<stop offset="0.5" stop-color="#D4AF37"/>
<stop offset="1" stop-color="#B8860B"/>
</linearGradient>
<linearGradient id="paint1_linear_2378_908" x1="119.369" y1="51.582" x2="0.141535" y2="51.2513" gradientUnits="userSpaceOnUse">
<stop stop-color="#996516"/>
<stop offset="0.25" stop-color="#FFCC00"/>
<stop offset="0.5" stop-color="#D4AF37"/>
<stop offset="1" stop-color="#B8860B"/>
</linearGradient>
</defs>
</svg>
