<svg width="16" height="16" viewBox="0 0 16 16" fill="none" xmlns="http://www.w3.org/2000/svg">
<circle cx="8" cy="8" r="8" fill="white"/>
<path d="M7.27301 10.396C7.27301 9.78 7.36101 9.304 7.53701 8.968C7.71301 8.624 8.01701 8.336 8.44901 8.104C8.74501 7.944 8.96901 7.804 9.12101 7.684C9.27301 7.556 9.37301 7.424 9.42101 7.288C9.47701 7.144 9.50501 6.968 9.50501 6.76C9.50501 6.424 9.39301 6.148 9.16901 5.932C8.95301 5.716 8.64101 5.608 8.23301 5.608C7.76101 5.608 7.39701 5.732 7.14101 5.98C6.88501 6.228 6.72901 6.592 6.67301 7.072L5.06501 7C5.11301 6.472 5.26501 6.004 5.52101 5.596C5.78501 5.188 6.14501 4.868 6.60101 4.636C7.05701 4.404 7.60101 4.288 8.23301 4.288C8.83301 4.288 9.34501 4.396 9.76901 4.612C10.201 4.828 10.529 5.124 10.753 5.5C10.977 5.868 11.089 6.288 11.089 6.76C11.089 7.112 11.037 7.408 10.933 7.648C10.837 7.888 10.677 8.108 10.453 8.308C10.237 8.5 9.95301 8.704 9.60101 8.92C9.29701 9.096 9.08501 9.288 8.96501 9.496C8.85301 9.704 8.79701 10.004 8.79701 10.396H7.27301ZM7.14101 13V11.32H8.89301V13H7.14101Z" fill="#610A73"/>
</svg>
