<svg width="171" height="145" viewBox="0 0 171 145" fill="none" xmlns="http://www.w3.org/2000/svg">
<path d="M111.879 102.965L113.423 102.862L114.975 102.862L115.362 102.864L115.751 102.89L116.527 102.945C116.786 102.965 117.045 102.978 117.303 103.004L118.076 103.113C119.108 103.253 120.133 103.452 121.147 103.708L122.653 104.149C123.153 104.303 123.638 104.504 124.129 104.681C126.07 105.442 127.932 106.408 129.683 107.564C131.411 108.732 133.025 110.069 134.5 111.556C134.88 111.959 135.274 112.349 135.637 112.767L136.708 114.041L137.701 115.378C138.033 115.822 138.314 116.304 138.623 116.765C139.806 118.649 140.785 120.652 141.543 122.738L142.041 124.229C142.184 124.658 142.171 125.12 142.005 125.529C141.838 125.938 141.53 126.268 141.135 126.457C140.741 126.647 140.288 126.683 139.859 126.56C139.43 126.436 139.055 126.161 138.802 125.785L138.753 125.712C136.026 121.652 133.203 117.473 131.127 112.763C130.066 110.386 129.274 107.903 128.768 105.362C128.243 102.753 128.136 100.09 128.452 97.4751C128.816 94.8516 129.617 92.3238 130.82 89.9984C131.996 87.7538 133.405 85.6482 135.025 83.7162C135.816 82.7593 136.638 81.8431 137.484 80.9534C138.333 80.0646 139.225 79.1855 140.198 78.3569C141.187 77.5 142.252 76.7355 143.379 76.0724C144.562 75.3773 145.833 74.8419 147.162 74.4792C147.599 74.3598 148.067 74.3815 148.502 74.5414C148.936 74.7013 149.315 74.9916 149.588 75.3726C149.861 75.7536 150.013 76.2068 150.025 76.6703C150.037 77.1338 149.908 77.5851 149.655 77.9624L149.626 78.0045C148.364 79.8084 146.793 81.3642 144.985 82.6019C143.063 83.9121 141.029 85.0496 138.905 86.0021C136.836 87.0003 134.7 87.8606 132.513 88.5778C131.379 88.9441 130.223 89.2392 129.049 89.4613C127.845 89.698 126.621 89.8331 125.389 89.8652C124.127 89.9009 122.861 89.8123 121.607 89.6007C120.355 89.3824 119.124 89.0388 117.931 88.5751C115.644 87.6659 113.474 86.4621 111.476 84.9942C107.606 82.1951 104.136 78.8599 101.17 75.091C100.803 74.6194 100.439 74.1441 100.089 73.6591C99.912 73.4185 99.7375 73.1756 99.5675 72.9295C99.3954 72.6818 99.2309 72.4561 99.0311 72.1484C98.5813 71.48 98.2294 70.7511 97.987 69.9853C97.8313 69.4761 97.7551 68.9479 97.7612 68.4202C97.7713 67.7941 97.9174 67.1825 98.1892 66.6289L98.2008 66.6056C98.3353 66.3369 98.5217 66.0995 98.7491 65.9069C98.9766 65.7143 99.2408 65.5703 99.5266 65.4831C99.8124 65.3958 100.114 65.3671 100.415 65.3986C100.715 65.43 101.009 65.521 101.279 65.6663C101.57 65.8245 101.827 66.0416 102.034 66.3036C107.908 73.8361 111.237 83.0367 111.509 92.4872C111.57 94.6844 111.362 96.8718 110.889 98.9991C110.641 100.079 110.306 101.135 109.889 102.155C109.47 103.179 108.957 104.159 108.356 105.081C107.417 106.565 106.152 107.804 104.656 108.705C103.705 109.294 102.62 109.637 101.493 109.706C100.238 109.717 100.144 109.205 100.777 108.512C101.084 108.138 101.574 107.705 102.159 107.117C102.869 106.411 103.531 105.657 104.141 104.86C105.067 103.62 105.806 102.245 106.333 100.776C106.876 99.2402 107.24 97.6397 107.416 96.0067C107.658 93.63 107.619 91.2232 107.3 88.837C107.009 86.4221 106.485 84.0341 105.737 81.7074C104.248 77.0478 101.906 72.6895 98.834 68.866L101.91 68.6057C101.912 68.6067 101.918 68.6092 101.911 68.6059L101.894 68.5992C101.898 68.6007 101.901 68.6021 101.904 68.6031C101.913 68.6061 101.92 68.6075 101.916 68.606L101.919 68.6107C101.919 68.6382 101.922 68.6658 101.928 68.6929C101.965 68.8747 102.029 69.0508 102.117 69.2155C102.25 69.4771 102.402 69.7285 102.572 69.9677L103.225 70.8676C104.13 72.0799 105.099 73.2425 106.108 74.3647C108.134 76.5986 110.373 78.6252 112.789 80.4131C114.489 81.694 116.316 82.7857 118.239 83.6683C119.149 84.0787 120.088 84.4167 121.046 84.6793C121.507 84.8057 121.973 84.9088 122.443 84.9881C122.677 85.0235 122.908 85.0752 123.143 85.1032L123.845 85.1859C125.893 85.348 127.941 85.1638 129.907 84.641C131.992 84.097 134.023 83.3751 135.978 82.4829C137.97 81.6367 139.896 80.6489 141.743 79.5269C143.462 78.4912 144.958 77.122 146.147 75.4945L148.326 78.6124C146.401 79.111 144.582 80.2038 142.903 81.6071C142.06 82.3032 141.247 83.075 140.445 83.8831C139.643 84.695 138.864 85.5263 138.121 86.3788C136.514 88.18 135.144 90.1875 134.045 92.3536C132.974 94.4555 132.321 96.7607 132.121 99.1426C131.96 101.558 132.19 103.998 132.802 106.365C133.423 108.791 134.304 111.15 135.429 113.398C137.172 116.958 139.388 120.355 141.641 123.794L138.68 125.129C136.812 118.532 132.003 112.715 125.944 109.428C125.561 109.233 125.188 109.01 124.796 108.835L123.619 108.308C123.225 108.138 122.817 108.008 122.416 107.855C122.215 107.784 122.016 107.7 121.811 107.639L121.196 107.463C120.375 107.222 119.545 107.024 118.708 106.868C117.864 106.756 117.022 106.611 116.17 106.582C115.745 106.543 115.319 106.527 114.894 106.532C114.469 106.538 114.042 106.527 113.617 106.545L112.344 106.637C111.918 106.661 111.501 106.746 111.079 106.797C109.391 107.04 107.739 107.461 106.149 108.053C102.352 109.454 98.9186 111.664 96.0743 114.539L95.1296 113.209C97.5172 112.505 99.7311 111.331 101.648 109.754C102.735 108.858 103.304 108.428 103.474 108.691C103.543 108.81 103.523 109.112 103.344 109.561C103.235 109.834 103.106 110.097 102.959 110.349C102.875 110.499 102.78 110.658 102.669 110.821C102.613 110.902 102.559 110.989 102.495 111.072C102.429 111.153 102.36 111.235 102.287 111.319C100.608 113.262 98.5247 114.803 96.1783 115.839C95.7892 116.009 95.3506 116.041 94.9326 115.928C94.5146 115.816 94.1411 115.566 93.8716 115.219C93.6021 114.871 93.4521 114.446 93.4455 114.011C93.4389 113.576 93.5761 113.157 93.8352 112.819L93.9384 112.685C95.557 110.597 97.4941 108.788 99.6803 107.32C101.47 106.108 103.417 105.143 105.47 104.449C107.532 103.742 109.671 103.268 111.85 103.035C111.858 103.011 111.867 102.989 111.879 102.965Z" fill="url(#paint0_linear_2378_912)"/>
<path d="M118.471 41.8951C121.152 42.7273 123.702 43.9751 126.029 45.5934C126.318 45.7976 126.612 45.9924 126.895 46.2051L127.72 46.878C127.992 47.1061 128.275 47.3196 128.536 47.5603L129.306 48.2992C129.558 48.5502 129.827 48.7821 130.063 49.0494L130.771 49.8507L131.123 50.2518C131.24 50.3836 131.358 50.5174 131.476 50.672C131.712 50.9726 131.943 51.2914 132.164 51.6367C132.567 52.2531 132.879 52.9241 133.09 53.6274C133.206 54.0419 133.274 54.4671 133.292 54.8944C133.303 55.3558 133.249 55.8142 133.13 56.2556L133.122 56.2869C133.024 56.6519 132.818 56.9746 132.532 57.2127C132.245 57.4508 131.891 57.5931 131.517 57.6209C131.142 57.6487 130.765 57.5608 130.433 57.3686C130.102 57.1764 129.832 56.8889 129.659 56.544C128.862 54.945 128.153 53.3043 127.537 51.6298C126.491 48.841 125.82 45.9331 125.544 42.9864C125.264 39.972 125.515 36.9489 126.285 34.0588C127.096 31.1337 128.481 28.4217 130.359 26.082C132.294 23.6877 134.79 21.8256 137.633 20.6565C138.053 20.4881 138.518 20.4578 138.965 20.5699C139.411 20.682 139.817 20.9308 140.126 21.282C140.435 21.6332 140.632 22.0694 140.689 22.5304C140.747 22.9914 140.662 23.4543 140.447 23.8552L140.425 23.8947C139.892 24.8581 139.21 25.7254 138.404 26.4647C137.659 27.1398 136.848 27.7357 135.981 28.2437C135.157 28.7391 134.331 29.152 133.528 29.5346C132.726 29.9134 131.958 30.2729 131.108 30.6374C129.897 31.178 128.626 31.5809 127.319 31.839C126.597 31.9717 125.862 32.0316 125.125 32.0178C124.369 32 123.615 31.8994 122.876 31.7177C121.484 31.3524 120.151 30.7642 118.93 29.9757C117.801 29.248 116.738 28.4157 115.757 27.4897C111.917 23.9282 109.023 19.4457 107.361 14.4823L107.358 14.475C107.214 14.0421 107.196 13.58 107.307 13.1457C107.419 12.7113 107.654 12.3236 107.984 12.0304C108.315 11.7371 108.726 11.5511 109.167 11.4952C109.608 11.4394 110.06 11.5161 110.467 11.7159C111.767 12.3793 112.891 13.3619 113.731 14.5712C114.471 15.6295 115.062 16.7841 115.486 18.0002C115.702 18.5797 115.857 19.1453 116.023 19.711C116.167 20.282 116.316 20.8525 116.42 21.4304C116.65 22.5809 116.795 23.7446 116.854 24.9114C117.122 29.6023 116.049 34.2269 113.762 38.2279C112.294 40.7539 110.318 42.9287 107.957 44.6163C107.035 45.2857 106.002 45.7859 104.901 46.0953C104.676 46.1547 104.461 46.2042 104.256 46.2425C104.046 46.2737 103.846 46.2956 103.657 46.3083C103.315 46.3379 102.969 46.3245 102.627 46.2683C101.731 46.1246 101.557 45.6405 101.922 45.0021C102.293 44.3682 103.191 43.5612 104.444 42.5147L105.04 42.0082L105.633 41.4783C106.023 41.1152 106.427 40.7597 106.811 40.3773C107.583 39.6235 108.308 38.8223 108.983 37.9777C110.276 36.3344 111.273 34.4677 111.928 32.4597C113.256 28.4078 113.224 23.9823 111.835 19.8598C111.529 18.9135 111.091 18.0126 110.534 17.1853C110.085 16.4955 109.456 15.9426 108.72 15.5908L111.387 13.2156C111.917 14.6483 112.576 16.032 113.357 17.3484C114.791 19.7832 116.719 21.9829 118.595 23.9328C119.925 25.3276 121.4 26.5021 122.939 27.1333C123.671 27.4419 124.449 27.6106 125.233 27.6308C126.068 27.6227 126.893 27.4884 127.681 27.2321C128.58 26.9409 129.459 26.5945 130.313 26.1948C131.23 25.7785 132.143 25.3654 132.97 24.9278C134.639 24.0567 136.024 23.0291 136.744 21.7385L139.24 24.6336L138.627 24.8915L138.319 25.0182L138.021 25.1695L137.425 25.4704L136.85 25.8151C135.554 26.6147 134.395 27.6172 133.414 28.7869C132.417 29.981 131.584 31.308 130.935 32.7338C130.281 34.1654 129.806 35.6795 129.523 37.2416C129.239 38.824 129.129 40.4387 129.192 42.057C129.342 46.4631 130.671 50.9059 132.722 54.98L129.773 55.2251C129.826 55.0275 129.825 54.8174 129.771 54.6166C129.689 54.3021 129.56 54.0006 129.389 53.7228C129.179 53.3752 128.944 53.0439 128.685 52.732L127.777 51.7156C127.473 51.377 127.15 51.0554 126.811 50.7523L126.316 50.2811C126.154 50.1205 125.965 49.991 125.791 49.844C125.432 49.5622 125.087 49.2622 124.719 48.9925L123.587 48.2193C122.038 47.2339 120.392 46.4233 118.677 45.8024C116.947 45.204 115.166 44.7894 113.363 44.5655C111.107 44.3146 108.839 44.3198 106.601 44.581C106.464 44.594 106.327 44.6016 106.192 44.618L105.791 44.6844L104.99 44.8084C104.448 44.867 103.938 45.0075 103.415 45.1118L102.633 45.2703C102.383 45.3304 102.139 45.3967 101.904 45.4786C101.424 45.6167 101 45.8989 100.688 46.2887C100.617 46.3921 100.561 46.4985 100.513 46.5778C100.512 46.5795 100.512 46.5813 100.511 46.5832C100.511 46.5851 100.511 46.5871 100.512 46.589L100.519 46.6176C100.55 46.7196 100.617 46.8074 100.707 46.8633C100.79 46.9149 100.881 46.9493 100.976 46.9643C101.146 46.991 101.319 46.9638 101.471 46.8866C101.543 46.8512 101.607 46.8005 101.658 46.7378C101.708 46.6877 101.753 46.634 101.795 46.577C101.864 46.4781 101.916 46.4096 101.971 46.4094C102.025 46.4084 102.087 46.4767 102.119 46.6426C102.132 46.7485 102.126 46.8553 102.102 46.9579C102.089 47.1052 102.037 47.245 101.952 47.3629C101.758 47.6592 101.463 47.8721 101.121 47.9636C100.868 48.0313 100.6 48.0309 100.343 47.9625C100.158 47.9121 99.9815 47.8282 99.8236 47.715C99.6385 47.5793 99.4809 47.4082 99.3601 47.2119C99.2679 47.0633 99.219 46.8924 99.2193 46.7195L99.2195 46.2849C99.2192 46.0566 99.2465 45.8301 99.3006 45.6103C99.3309 45.4878 99.3701 45.3681 99.4177 45.2519C99.4738 45.1361 99.5378 45.0246 99.6093 44.9182C99.9515 44.4217 100.387 43.9997 100.892 43.6753C101.282 43.4153 101.694 43.1895 102.124 43.0001L103.295 42.4648L103.592 42.3336L103.898 42.2269L104.513 42.0153C106.174 41.4483 107.901 41.0848 109.66 40.9324C112.603 40.7365 115.573 41.0821 118.43 41.9525C118.443 41.9337 118.455 41.9166 118.471 41.8951Z" fill="url(#paint1_linear_2378_912)"/>
<path d="M38.951 84.4528C42.7329 84.0269 46.7203 83.9075 50.712 84.768C52.6922 85.2121 54.6225 85.8854 56.4646 86.7743C58.2677 87.6554 59.995 88.6948 61.6263 89.8803C65.0386 92.3835 67.9834 95.3667 70.7373 98.3785C71.4276 99.1211 72.1046 99.8719 72.7729 100.625L74.7611 102.887L72.0925 105.23C69.0013 101.647 65.9392 97.888 63.5269 93.6077C61.1112 89.3558 59.3636 84.5427 59.0157 79.5314C58.9273 78.272 58.9328 77.0108 59.0321 75.7585C59.1231 74.49 59.3291 73.2365 59.6477 72.0139C59.7163 71.7026 59.8177 71.4044 59.91 71.1023C60.008 70.8027 60.0891 70.4946 60.2028 70.2023C60.4274 69.6161 60.6423 69.0229 60.9133 68.4625C61.4253 67.3341 62.0197 66.2481 62.6916 65.2132C63.3498 64.1947 64.0645 63.2158 64.8323 62.281C65.5992 61.3648 66.3839 60.4669 67.2031 59.6259C68.8294 57.9215 70.5355 56.3622 72.2186 54.8255L74.8743 58.3749L73.1826 59.459C71.348 60.6421 69.453 61.7709 67.5077 62.8555C65.5284 63.9832 63.4633 64.9559 61.3299 65.7652C59.0836 66.6227 56.7055 67.1088 54.2841 67.2055C53.019 67.2343 51.7501 67.1133 50.503 66.8448C49.256 66.5701 48.0424 66.1405 46.8901 65.5658C44.6275 64.4507 42.711 62.9807 40.9359 61.5207C39.1479 60.053 37.433 58.4949 35.798 56.8529C34.1561 55.2201 32.6069 53.4944 31.1584 51.6844C30.4373 50.7779 29.7324 49.8589 29.0576 48.9181L28.552 48.2125C28.3852 47.9762 28.2293 47.7319 28.0486 47.5054C27.6994 47.0438 27.3706 46.5674 27.0305 46.0985L30.2764 44.1388C32.3697 47.8206 34.4848 51.5748 36.2427 55.5947C36.4544 56.1013 36.6751 56.6048 36.879 57.1151L37.4551 58.6673L37.9816 60.2449L38.4518 61.8479C39.0524 64.0218 39.4461 66.2424 39.6274 68.479C39.9308 72.7333 39.2712 76.9694 37.6991 80.8627C37.1066 82.3905 36.2911 83.8134 35.2792 85.0852C34.9035 85.5404 34.4916 85.9632 34.0473 86.3498C33.8477 86.5196 33.6548 86.6724 33.4685 86.8084L33.3302 86.9077L33.206 86.9697C33.1181 87.0123 33.0334 87.0534 32.9517 87.093C31.9331 87.575 31.3077 87.7535 31.5317 86.5487C31.567 86.3787 31.6128 86.2114 31.6686 86.0479C31.696 85.9595 31.7437 85.8482 31.7669 85.7664C31.7878 85.6894 31.8096 85.6089 31.8323 85.525C31.9242 85.1914 32.0643 84.8314 32.2091 84.4195C32.348 84.004 32.5411 83.568 32.7174 83.0709C32.8128 82.8275 32.9125 82.5731 33.0164 82.3079C33.113 82.0396 33.2169 81.7632 33.3284 81.4787C33.8914 79.9858 34.3561 78.454 34.7196 76.8929C35.1007 75.3133 35.3599 73.7021 35.4951 72.0739C35.668 69.8374 35.5581 67.5784 35.1682 65.3512C34.762 63.082 34.151 60.8487 33.3429 58.6799C31.7732 54.2691 29.5451 50.0179 27.2691 45.7534L27.2679 45.7509C27.0794 45.3975 27.0291 44.9889 27.1272 44.6088C27.2254 44.2286 27.4645 43.9057 27.7956 43.7062C28.1268 43.5067 28.5249 43.4456 28.9085 43.5356C29.292 43.6255 29.632 43.8596 29.8587 44.1899C30.2999 44.8334 30.7155 45.4958 31.1944 46.1131C31.6689 46.7329 32.1502 47.3471 32.6467 47.9486C33.6342 49.156 34.6753 50.3161 35.7373 51.4525C37.8557 53.7265 40.1385 55.8376 42.5654 57.7668C44.1907 59.1093 45.9301 60.3005 47.7615 61.3252C48.6036 61.7786 49.4852 62.1479 50.3934 62.4276C51.2647 62.6784 52.1549 62.8448 53.0519 62.9245C53.8812 62.9806 54.7113 62.9653 55.5334 62.8789C56.3848 62.7759 57.2265 62.6143 58.0526 62.3952C59.7672 61.9156 61.4285 61.2729 63.0146 60.4755C66.2791 58.8656 69.4294 56.8319 72.6385 54.847L72.6573 54.8353C73.0593 54.5866 73.5439 54.5033 74.015 54.6019C74.4861 54.7006 74.9092 54.974 75.2005 55.3679C75.4917 55.7617 75.6298 56.2473 75.5873 56.7283C75.5449 57.2093 75.3249 57.6506 74.9712 57.9646C72.8109 59.882 70.6985 61.7886 68.8173 63.842C66.9533 65.9009 65.2757 68.0844 64.1297 70.511C63.6388 71.543 63.2459 72.6225 62.9563 73.7354C62.6808 74.8597 62.51 76.011 62.4462 77.1744C62.3561 79.5522 62.6354 81.9419 63.2739 84.2564C63.9162 86.6087 64.8388 88.8816 66.021 91.024C67.2184 93.2045 68.5677 95.2991 70.0582 97.2915C71.4916 99.2429 73.0469 101.129 74.6386 103.002L74.6491 103.015C74.9345 103.35 75.0805 103.783 75.0552 104.217C75.0298 104.652 74.8351 105.052 74.5138 105.332C74.1925 105.611 73.7708 105.746 73.3411 105.707C72.9114 105.668 72.5088 105.459 72.2216 105.124C69.6483 102.128 67.0725 99.1738 64.254 96.5517C62.8715 95.233 61.4105 94.0021 59.8798 92.8665C58.3677 91.7568 56.7606 90.7903 55.0797 89.9799C54.6572 89.7949 54.2412 89.588 53.8136 89.4185L52.5216 88.9383C51.6503 88.6562 50.7666 88.42 49.874 88.2305C48.0556 87.8811 46.2126 87.7211 44.3743 87.753C43.4443 87.7625 42.5106 87.8095 41.5752 87.885C41.1077 87.9228 40.6398 87.9672 40.1715 88.0181L39.4687 88.0985L39.1192 88.1414L38.7945 88.193C38.3634 88.2493 37.9216 88.3574 37.4826 88.4479C37.0432 88.5679 36.6008 88.666 36.1631 88.8091C35.2827 89.0626 34.4165 89.3883 33.5571 89.7229C31.8985 90.3842 30.297 91.176 28.7668 92.0913C27.2858 92.9815 25.9317 94.0194 25.0409 95.2308L23.7671 94.0662L23.7041 93.975L23.7055 93.9741L23.7138 93.9685L23.7248 93.9611L23.7469 93.9462L23.7914 93.9167C23.8204 93.898 23.8503 93.8789 23.8902 93.849L24.1135 93.6875L24.5649 93.3549C24.8669 93.1307 25.1672 92.9079 25.4658 92.6863C26.0674 92.2445 26.6617 91.8081 27.2486 91.377C28.4275 90.5182 29.5899 89.6968 30.7264 88.8955C31.1086 88.6161 31.5123 88.3676 31.934 88.1521C32.0938 88.0629 32.216 88.0493 32.3552 87.9549C32.4443 87.8912 32.5514 87.8572 32.6621 87.8575L32.7048 87.4265C32.7575 87.5746 32.7501 87.6605 32.7791 87.6575C32.8013 87.659 32.8568 87.5697 32.8481 87.4C32.8471 87.3795 32.8417 87.3594 32.8322 87.341C32.8227 87.3227 32.8094 87.3065 32.7932 87.2938C32.7771 87.281 32.7584 87.2719 32.7387 87.2672C32.7189 87.2625 32.6985 87.2622 32.6789 87.2664C32.6593 87.2706 32.641 87.2792 32.6253 87.2916C32.6096 87.3039 32.5969 87.3197 32.5882 87.3378C32.5794 87.3559 32.5748 87.3759 32.5746 87.3963C32.5744 87.4168 32.5787 87.4371 32.5871 87.456L32.7967 87.9216C32.8354 88.0077 32.8142 88.1934 32.7156 88.4503C32.6596 88.6471 32.5816 88.8361 32.483 89.0136C32.1782 89.5593 31.809 90.064 31.3834 90.5171C30.4687 91.5097 29.526 92.4773 28.5594 93.4447C28.0761 93.9277 27.5863 94.4092 27.0898 94.8893L26.3347 95.6103L25.9427 95.9751L25.7369 96.1623C25.659 96.2317 25.5387 96.3299 25.4396 96.4103C25.0846 96.6981 24.6372 96.8475 24.175 96.8328C23.7129 96.818 23.265 96.6399 22.909 96.3293C22.5531 96.0187 22.3115 95.5953 22.2261 95.1323C22.1407 94.6693 22.2168 94.1959 22.4414 93.7943L22.5137 93.6667C23.1064 92.6532 23.844 91.7372 24.7033 90.9472C25.1093 90.5931 25.5133 90.217 25.9371 89.9079C26.1478 89.7481 26.3566 89.5807 26.5702 89.4285L27.216 88.9862C28.9511 87.8446 30.8074 86.8978 32.7536 86.1617C33.7306 85.7803 34.7274 85.4494 35.7404 85.1701L36.5133 84.9652L37.3101 84.7899C37.5703 84.7269 37.8552 84.6874 38.1311 84.6403L38.5471 84.5725L38.9255 84.5234C38.9332 84.4996 38.9405 84.4776 38.951 84.4528Z" fill="url(#paint2_linear_2378_912)"/>
<defs>
<linearGradient id="paint0_linear_2378_912" x1="100.95" y1="64.4104" x2="142.217" y2="125.752" gradientUnits="userSpaceOnUse">
<stop stop-color="#996516"/>
<stop offset="0.25" stop-color="#FFCC00"/>
<stop offset="0.5" stop-color="#D4AF37"/>
<stop offset="1" stop-color="#B8860B"/>
</linearGradient>
<linearGradient id="paint1_linear_2378_912" x1="105.787" y1="13.4853" x2="134.376" y2="55.9826" gradientUnits="userSpaceOnUse">
<stop stop-color="#996516"/>
<stop offset="0.25" stop-color="#FFCC00"/>
<stop offset="0.5" stop-color="#D4AF37"/>
<stop offset="1" stop-color="#B8860B"/>
</linearGradient>
<linearGradient id="paint2_linear_2378_912" x1="27.5151" y1="43.8927" x2="70.6196" y2="107.966" gradientUnits="userSpaceOnUse">
<stop stop-color="#996516"/>
<stop offset="0.25" stop-color="#FFCC00"/>
<stop offset="0.5" stop-color="#D4AF37"/>
<stop offset="1" stop-color="#B8860B"/>
</linearGradient>
</defs>
</svg>
