<svg width="69" height="70" viewBox="0 0 69 70" fill="none" xmlns="http://www.w3.org/2000/svg">
<path d="M27.1448 42.4819C26.5802 44.0818 26.0182 45.8732 25.6448 47.5598C25.4053 48.6413 25.2348 49.7134 25.2004 50.6834C25.1668 51.6284 25.2556 52.6059 25.6437 53.4119C26.2569 54.6853 27.5241 56.5529 28.8748 58.4097C29.8811 59.7929 30.9688 61.2164 31.9409 62.4628C30.4028 61.8761 28.6202 61.2722 26.8748 60.8549C25.7009 60.5743 24.513 60.3704 23.409 60.3204C22.3192 60.271 21.2198 60.3668 20.2785 60.7619C18.6862 61.4306 16.648 62.7772 14.7245 64.1853C13.3016 65.2269 11.8918 66.3388 10.6942 67.3144C11.1874 65.7543 11.7296 63.9222 12.1634 62.142C12.4561 60.9413 12.704 59.7467 12.8552 58.6659C13.0036 57.6043 13.0707 56.571 12.9549 55.7262C12.8359 54.8595 12.439 53.9218 11.9514 53.0211C11.4529 52.1002 10.8072 51.125 10.1074 50.1644C9.06198 48.7293 7.86225 47.2844 6.77662 46.0428C8.26159 46.516 9.9597 47.0132 11.6273 47.4055C13.8471 47.9277 16.1759 48.3056 17.8861 48.1008C19.5842 47.8974 21.511 46.8149 23.2389 45.606C24.6025 44.652 25.955 43.5345 27.1448 42.4819Z" stroke="url(#paint0_linear_2378_246)" stroke-width="2.42442"/>
<path d="M32.7951 37.9284C38.6386 33.5426 52.343 20.0594 60.413 1.21251M23.2042 27.8017C23.9471 24.5047 25.4427 21.4025 22.9454 12.1155M39.5337 46.2364C43.9947 46.9761 52.0025 48.1355 60.7402 41.3421" stroke="url(#paint1_linear_2378_246)" stroke-width="2.42442" stroke-linecap="round"/>
<defs>
<linearGradient id="paint0_linear_2378_246" x1="17.7384" y1="41.7617" x2="21.0911" y2="67.9873" gradientUnits="userSpaceOnUse">
<stop stop-color="#996516"/>
<stop offset="0.25" stop-color="#FFCC00"/>
<stop offset="0.5" stop-color="#D4AF37"/>
<stop offset="1" stop-color="#B8860B"/>
</linearGradient>
<linearGradient id="paint1_linear_2378_246" x1="40.4355" y1="3.7665" x2="45.9554" y2="46.9437" gradientUnits="userSpaceOnUse">
<stop stop-color="#996516"/>
<stop offset="0.25" stop-color="#FFCC00"/>
<stop offset="0.5" stop-color="#D4AF37"/>
<stop offset="1" stop-color="#B8860B"/>
</linearGradient>
</defs>
</svg>
