<svg width="171" height="145" viewBox="0 0 171 145" fill="none" xmlns="http://www.w3.org/2000/svg">
<path d="M111.879 102.965L113.423 102.862L114.975 102.862L115.362 102.864L115.751 102.89L116.527 102.945C116.786 102.965 117.045 102.978 117.303 103.005L118.076 103.113C119.108 103.253 120.133 103.452 121.147 103.708L122.653 104.149C123.153 104.303 123.638 104.505 124.129 104.681C126.07 105.442 127.932 106.408 129.683 107.564C131.411 108.732 133.025 110.069 134.5 111.556C134.88 111.959 135.274 112.349 135.637 112.767L136.708 114.042L137.701 115.378C138.033 115.823 138.314 116.304 138.623 116.765C139.806 118.649 140.785 120.652 141.543 122.738L142.041 124.23C142.184 124.658 142.171 125.12 142.005 125.529C141.838 125.938 141.53 126.268 141.135 126.458C140.741 126.647 140.288 126.683 139.859 126.56C139.43 126.436 139.055 126.161 138.802 125.785L138.753 125.712C136.026 121.652 133.203 117.473 131.127 112.763C130.066 110.387 129.274 107.903 128.768 105.362C128.243 102.754 128.136 100.09 128.452 97.4753C128.816 94.8517 129.617 92.324 130.82 89.9985C131.996 87.7539 133.405 85.6484 135.025 83.7164C135.816 82.7594 136.638 81.8433 137.484 80.9535C138.333 80.0648 139.225 79.1857 140.198 78.3571C141.187 77.5002 142.252 76.7357 143.379 76.0725C144.562 75.3775 145.833 74.8421 147.162 74.4794C147.599 74.36 148.067 74.3817 148.502 74.5416C148.936 74.7015 149.315 74.9917 149.588 75.3728C149.861 75.7538 150.013 76.207 150.025 76.6705C150.037 77.134 149.908 77.5853 149.655 77.9626L149.626 78.0047C148.364 79.8086 146.793 81.3644 144.985 82.602C143.063 83.9122 141.029 85.0498 138.905 86.0023C136.836 87.0004 134.7 87.8608 132.513 88.578C131.379 88.9443 130.223 89.2393 129.049 89.4615C127.845 89.6981 126.621 89.8333 125.389 89.8654C124.127 89.9011 122.861 89.8125 121.607 89.6009C120.355 89.3826 119.124 89.039 117.931 88.5753C115.644 87.666 113.474 86.4623 111.476 84.9944C107.606 82.1953 104.136 78.8601 101.17 75.0912C100.803 74.6196 100.439 74.1443 100.089 73.6593C99.912 73.4187 99.7375 73.1758 99.5675 72.9297C99.3954 72.682 99.2309 72.4563 99.0311 72.1485C98.5813 71.4802 98.2294 70.7513 97.987 69.9855C97.8313 69.4763 97.7551 68.9481 97.7612 68.4204C97.7713 67.7943 97.9174 67.1827 98.1892 66.6291L98.2008 66.6058C98.3353 66.3371 98.5217 66.0997 98.7491 65.9071C98.9766 65.7145 99.2408 65.5705 99.5266 65.4832C99.8124 65.396 100.114 65.3673 100.415 65.3987C100.715 65.4302 101.009 65.5211 101.279 65.6665C101.57 65.8247 101.827 66.0418 102.034 66.3038C107.908 73.8363 111.237 83.0369 111.509 92.4874C111.57 94.6846 111.362 96.872 110.889 98.9993C110.641 100.079 110.306 101.135 109.889 102.155C109.47 103.179 108.957 104.159 108.356 105.082C107.417 106.566 106.152 107.804 104.656 108.705C103.705 109.294 102.62 109.637 101.493 109.706C100.238 109.717 100.144 109.205 100.777 108.512C101.084 108.138 101.574 107.705 102.159 107.117C102.869 106.411 103.531 105.657 104.141 104.86C105.067 103.62 105.806 102.245 106.333 100.776C106.876 99.2404 107.24 97.6399 107.416 96.0069C107.658 93.6302 107.619 91.2234 107.3 88.8372C107.009 86.4222 106.485 84.0343 105.737 81.7076C104.248 77.048 101.906 72.6897 98.834 68.8662L101.91 68.6059C101.912 68.6068 101.918 68.6094 101.911 68.6061L101.894 68.5994C101.898 68.6009 101.901 68.6022 101.904 68.6033C101.913 68.6063 101.92 68.6077 101.916 68.6061L101.919 68.6109C101.919 68.6384 101.922 68.666 101.928 68.6931C101.965 68.8749 102.029 69.051 102.117 69.2157C102.25 69.4772 102.402 69.7287 102.572 69.9679L103.225 70.8678C104.13 72.0801 105.099 73.2427 106.108 74.3648C108.134 76.5988 110.373 78.6254 112.789 80.4133C114.489 81.6942 116.316 82.7859 118.239 83.6684C119.149 84.0789 120.088 84.4169 121.046 84.6795C121.507 84.8059 121.973 84.909 122.443 84.9883C122.677 85.0237 122.908 85.0754 123.143 85.1033L123.845 85.1861C125.893 85.3482 127.941 85.164 129.907 84.6412C131.992 84.0972 134.023 83.3753 135.978 82.4831C137.97 81.6369 139.896 80.6491 141.743 79.5271C143.462 78.4913 144.958 77.1222 146.147 75.4947L148.326 78.6126C146.401 79.1111 144.582 80.204 142.903 81.6073C142.06 82.3034 141.247 83.0752 140.445 83.8833C139.643 84.6952 138.864 85.5265 138.121 86.379C136.514 88.1801 135.144 90.1877 134.045 92.3538C132.974 94.4557 132.321 96.7608 132.121 99.1427C131.96 101.559 132.19 103.998 132.802 106.365C133.423 108.791 134.304 111.15 135.429 113.398C137.172 116.958 139.388 120.355 141.641 123.794L138.68 125.129C136.812 118.532 132.003 112.715 125.944 109.428C125.561 109.233 125.188 109.011 124.796 108.835L123.619 108.308C123.225 108.138 122.817 108.008 122.416 107.855C122.215 107.784 122.016 107.7 121.811 107.639L121.196 107.463C120.375 107.223 119.545 107.024 118.708 106.868C117.864 106.756 117.022 106.611 116.17 106.582C115.745 106.544 115.319 106.527 114.894 106.533C114.469 106.538 114.042 106.527 113.617 106.545L112.344 106.637C111.918 106.661 111.501 106.746 111.079 106.797C109.391 107.04 107.739 107.461 106.149 108.053C102.352 109.454 98.9186 111.665 96.0743 114.54L95.1296 113.21C97.5172 112.505 99.7311 111.332 101.648 109.754C102.735 108.858 103.304 108.428 103.474 108.691C103.543 108.81 103.523 109.113 103.344 109.562C103.235 109.834 103.106 110.097 102.959 110.349C102.875 110.5 102.78 110.658 102.669 110.821C102.613 110.902 102.559 110.989 102.495 111.072C102.429 111.153 102.36 111.235 102.287 111.319C100.608 113.262 98.5247 114.803 96.1783 115.839C95.7892 116.009 95.3506 116.041 94.9326 115.928C94.5146 115.816 94.1411 115.566 93.8716 115.219C93.6021 114.871 93.4521 114.446 93.4455 114.012C93.4389 113.577 93.5761 113.157 93.8352 112.819L93.9384 112.685C95.557 110.598 97.4941 108.788 99.6803 107.321C101.47 106.108 103.417 105.143 105.47 104.449C107.532 103.742 109.671 103.268 111.85 103.035C111.858 103.011 111.867 102.99 111.879 102.965Z" fill="#610A73"/>
<path d="M118.471 41.8953C121.152 42.7275 123.702 43.9753 126.029 45.5935C126.318 45.7977 126.612 45.9926 126.895 46.2053L127.72 46.8782C127.992 47.1063 128.275 47.3197 128.536 47.5605L129.306 48.2994C129.558 48.5503 129.827 48.7822 130.063 49.0495L130.771 49.8509L131.123 50.252C131.24 50.3838 131.358 50.5175 131.476 50.6722C131.712 50.9728 131.943 51.2916 132.164 51.6369C132.567 52.2533 132.879 52.9242 133.09 53.6276C133.206 54.0421 133.274 54.4673 133.292 54.8946C133.303 55.356 133.249 55.8144 133.13 56.2557L133.122 56.287C133.024 56.6521 132.818 56.9748 132.532 57.2129C132.245 57.451 131.891 57.5933 131.517 57.6211C131.142 57.6489 130.765 57.5609 130.433 57.3687C130.102 57.1765 129.832 56.8891 129.659 56.5442C128.862 54.9452 128.153 53.3045 127.537 51.63C126.491 48.8412 125.82 45.9332 125.544 42.9866C125.264 39.9722 125.515 36.9491 126.285 34.059C127.096 31.1339 128.481 28.4219 130.359 26.0822C132.294 23.6878 134.79 21.8258 137.633 20.6567C138.053 20.4883 138.518 20.458 138.965 20.5701C139.411 20.6821 139.817 20.931 140.126 21.2822C140.435 21.6334 140.632 22.0696 140.689 22.5306C140.747 22.9916 140.662 23.4545 140.447 23.8554L140.425 23.8949C139.892 24.8583 139.21 25.7256 138.404 26.4649C137.659 27.14 136.848 27.7359 135.981 28.2439C135.157 28.7393 134.331 29.1522 133.528 29.5348C132.726 29.9136 131.958 30.2731 131.108 30.6376C129.897 31.1782 128.626 31.5811 127.319 31.8392C126.597 31.9719 125.862 32.0318 125.125 32.0179C124.369 32.0002 123.615 31.8996 122.876 31.7178C121.484 31.3526 120.151 30.7644 118.93 29.9758C117.801 29.2482 116.738 28.4158 115.757 27.4899C111.917 23.9284 109.023 19.4459 107.361 14.4825L107.358 14.4752C107.214 14.0423 107.196 13.5802 107.307 13.1459C107.419 12.7115 107.654 12.3238 107.984 12.0306C108.315 11.7373 108.726 11.5513 109.167 11.4954C109.608 11.4395 110.06 11.5163 110.467 11.7161C111.767 12.3795 112.891 13.3621 113.731 14.5714C114.471 15.6297 115.062 16.7842 115.486 18.0004C115.702 18.5798 115.857 19.1455 116.023 19.7112C116.167 20.2822 116.316 20.8527 116.42 21.4306C116.65 22.5811 116.795 23.7448 116.854 24.9116C117.122 29.6025 116.049 34.2271 113.762 38.228C112.294 40.7541 110.318 42.9288 107.957 44.6165C107.035 45.2859 106.002 45.7861 104.901 46.0955C104.676 46.1549 104.461 46.2044 104.256 46.2427C104.046 46.2739 103.846 46.2958 103.657 46.3085C103.315 46.3381 102.969 46.3246 102.627 46.2685C101.731 46.1248 101.557 45.6407 101.922 45.0023C102.293 44.3683 103.191 43.5614 104.444 42.5149L105.04 42.0084L105.633 41.4785C106.023 41.1154 106.427 40.7599 106.811 40.3775C107.583 39.6237 108.308 38.8224 108.983 37.9779C110.276 36.3346 111.273 34.4679 111.928 32.4599C113.256 28.408 113.224 23.9825 111.835 19.86C111.529 18.9137 111.091 18.0128 110.534 17.1854C110.085 16.4957 109.456 15.9428 108.72 15.5909L111.387 13.2158C111.917 14.6485 112.576 16.0322 113.357 17.3486C114.791 19.7834 116.719 21.9831 118.595 23.933C119.925 25.3278 121.4 26.5023 122.939 27.1335C123.671 27.4421 124.449 27.6108 125.233 27.631C126.068 27.6229 126.893 27.4886 127.681 27.2323C128.58 26.9411 129.459 26.5947 130.313 26.195C131.23 25.7787 132.143 25.3656 132.97 24.928C134.639 24.0569 136.024 23.0292 136.744 21.7387L139.24 24.6337L138.627 24.8917L138.319 25.0184L138.021 25.1697L137.425 25.4706L136.85 25.8152C135.554 26.6149 134.395 27.6173 133.414 28.787C132.417 29.9812 131.584 31.3082 130.935 32.734C130.281 34.1656 129.806 35.6797 129.523 37.2418C129.239 38.8241 129.129 40.4389 129.192 42.0572C129.342 46.4633 130.671 50.9061 132.722 54.9802L129.773 55.2253C129.826 55.0277 129.825 54.8176 129.771 54.6168C129.689 54.3022 129.56 54.0008 129.389 53.723C129.179 53.3754 128.944 53.0441 128.685 52.7322L127.777 51.7158C127.473 51.3772 127.15 51.0556 126.811 50.7525L126.316 50.2813C126.154 50.1207 125.965 49.9912 125.791 49.8442C125.432 49.5624 125.087 49.2624 124.719 48.9927L123.587 48.2195C122.038 47.2341 120.392 46.4235 118.677 45.8026C116.947 45.2042 115.166 44.7896 113.363 44.5657C111.107 44.3148 108.839 44.32 106.601 44.5811C106.464 44.5942 106.327 44.6018 106.192 44.6181L105.791 44.6846L104.99 44.8086C104.448 44.8671 103.938 45.0076 103.415 45.112L102.633 45.2705C102.383 45.3306 102.139 45.3969 101.904 45.4787C101.424 45.6169 101 45.8991 100.688 46.2889C100.617 46.3923 100.561 46.4986 100.513 46.578C100.512 46.5796 100.512 46.5815 100.511 46.5834C100.511 46.5853 100.511 46.5873 100.512 46.5892L100.519 46.6178C100.55 46.7198 100.617 46.8076 100.707 46.8635C100.79 46.9151 100.881 46.9495 100.976 46.9645C101.146 46.9911 101.319 46.964 101.471 46.8868C101.543 46.8514 101.607 46.8007 101.658 46.7379C101.708 46.6879 101.753 46.6342 101.795 46.5772C101.864 46.4783 101.916 46.4098 101.971 46.4096C102.025 46.4086 102.087 46.4768 102.119 46.6428C102.132 46.7487 102.126 46.8554 102.102 46.9581C102.089 47.1054 102.037 47.2452 101.952 47.3631C101.758 47.6593 101.463 47.8723 101.121 47.9638C100.868 48.0315 100.6 48.0311 100.343 47.9627C100.158 47.9122 99.9815 47.8284 99.8236 47.7152C99.6385 47.5795 99.4809 47.4084 99.3601 47.2121C99.2679 47.0635 99.219 46.8926 99.2193 46.7197L99.2195 46.2851C99.2192 46.0568 99.2465 45.8303 99.3006 45.6105C99.3309 45.488 99.3701 45.3682 99.4177 45.2521C99.4738 45.1363 99.5378 45.0248 99.6093 44.9184C99.9515 44.4219 100.387 43.9999 100.892 43.6755C101.282 43.4155 101.694 43.1897 102.124 43.0003L103.295 42.465L103.592 42.3338L103.898 42.2271L104.513 42.0155C106.174 41.4485 107.901 41.085 109.66 40.9326C112.603 40.7367 115.573 41.0823 118.43 41.9526C118.443 41.9339 118.455 41.9168 118.471 41.8953Z" fill="#610A73"/>
<path d="M38.951 84.4535C42.7329 84.0275 46.7203 83.9082 50.712 84.7687C52.6922 85.2128 54.6225 85.8861 56.4646 86.775C58.2677 87.6561 59.995 88.6955 61.6263 89.881C65.0386 92.3842 67.9834 95.3673 70.7373 98.3792C71.4276 99.1218 72.1046 99.8726 72.7729 100.625L74.7611 102.888L72.0925 105.231C69.0013 101.648 65.9392 97.8887 63.5269 93.6084C61.1112 89.3565 59.3636 84.5434 59.0157 79.5321C58.9273 78.2727 58.9328 77.0115 59.0321 75.7592C59.1231 74.4907 59.3291 73.2372 59.6477 72.0145C59.7163 71.7033 59.8177 71.405 59.91 71.103C60.008 70.8033 60.0891 70.4953 60.2028 70.2029C60.4274 69.6168 60.6423 69.0236 60.9133 68.4632C61.4253 67.3348 62.0197 66.2488 62.6916 65.2139C63.3498 64.1953 64.0645 63.2164 64.8323 62.2817C65.5992 61.3655 66.3839 60.4675 67.2031 59.6266C68.8294 57.9222 70.5355 56.3628 72.2186 54.8261L74.8743 58.3756L73.1826 59.4597C71.348 60.6428 69.453 61.7716 67.5077 62.8562C65.5284 63.9839 63.4633 64.9565 61.3299 65.7659C59.0836 66.6234 56.7055 67.1095 54.2841 67.2061C53.019 67.235 51.7501 67.1139 50.503 66.8455C49.256 66.5708 48.0424 66.1411 46.8901 65.5664C44.6275 64.4513 42.711 62.9814 40.9359 61.5214C39.1479 60.0536 37.433 58.4956 35.798 56.8535C34.1561 55.2208 32.6069 53.495 31.1584 51.6851C30.4373 50.7786 29.7324 49.8596 29.0576 48.9188L28.552 48.2132C28.3852 47.9769 28.2293 47.7326 28.0486 47.5061C27.6994 47.0445 27.3706 46.568 27.0305 46.0992L30.2764 44.1395C32.3697 47.8213 34.4848 51.5755 36.2427 55.5953C36.4544 56.102 36.6751 56.6055 36.879 57.1158L37.4551 58.668L37.9816 60.2456L38.4518 61.8485C39.0524 64.0224 39.4461 66.2431 39.6274 68.4796C39.9308 72.734 39.2712 76.97 37.6991 80.8633C37.1066 82.3912 36.2911 83.8141 35.2792 85.0859C34.9035 85.541 34.4916 85.9639 34.0473 86.3505C33.8477 86.5202 33.6548 86.6731 33.4685 86.8091L33.3302 86.9084L33.206 86.9704C33.1181 87.013 33.0334 87.0541 32.9517 87.0937C31.9331 87.5757 31.3077 87.7542 31.5317 86.5494C31.567 86.3794 31.6128 86.2121 31.6686 86.0485C31.696 85.9602 31.7437 85.8489 31.7669 85.7671C31.7878 85.69 31.8096 85.6096 31.8323 85.5257C31.9242 85.192 32.0643 84.832 32.2091 84.4201C32.348 84.0046 32.5411 83.5687 32.7174 83.0715C32.8128 82.8281 32.9125 82.5738 33.0164 82.3086C33.113 82.0403 33.2169 81.7639 33.3284 81.4794C33.8914 79.9865 34.3561 78.4547 34.7196 76.8936C35.1007 75.314 35.3599 73.7028 35.4951 72.0745C35.668 69.8381 35.5581 67.579 35.1682 65.3519C34.762 63.0827 34.151 60.8494 33.3429 58.6806C31.7732 54.2698 29.5451 50.0186 27.2691 45.754L27.2679 45.7516C27.0794 45.3982 27.0291 44.9896 27.1272 44.6095C27.2254 44.2293 27.4645 43.9064 27.7956 43.7069C28.1268 43.5074 28.5249 43.4463 28.9085 43.5362C29.292 43.6262 29.632 43.8603 29.8587 44.1906C30.2999 44.834 30.7155 45.4964 31.1944 46.1137C31.6689 46.7336 32.1502 47.3477 32.6467 47.9493C33.6342 49.1566 34.6753 50.3168 35.7373 51.4531C37.8557 53.7272 40.1385 55.8382 42.5654 57.7675C44.1907 59.1099 45.9301 60.3011 47.7615 61.3259C48.6036 61.7793 49.4852 62.1485 50.3934 62.4283C51.2647 62.6791 52.1549 62.8455 53.0519 62.9252C53.8812 62.9813 54.7113 62.966 55.5334 62.8796C56.3848 62.7766 57.2265 62.615 58.0526 62.3959C59.7672 61.9163 61.4285 61.2735 63.0146 60.4761C66.2791 58.8663 69.4294 56.8326 72.6385 54.8476L72.6573 54.836C73.0593 54.5873 73.5439 54.504 74.015 54.6026C74.4861 54.7013 74.9092 54.9746 75.2005 55.3685C75.4917 55.7624 75.6298 56.248 75.5873 56.729C75.5449 57.21 75.3249 57.6513 74.9712 57.9653C72.8109 59.8827 70.6985 61.7893 68.8173 63.8427C66.9533 65.9016 65.2757 68.085 64.1297 70.5117C63.6388 71.5436 63.2459 72.6231 62.9563 73.7361C62.6808 74.8603 62.51 76.0116 62.4462 77.1751C62.3561 79.5529 62.6354 81.9426 63.2739 84.2571C63.9162 86.6094 64.8388 88.8822 66.021 91.0246C67.2184 93.2051 68.5677 95.2998 70.0582 97.2922C71.4916 99.2436 73.0469 101.13 74.6386 103.003L74.6491 103.015C74.9345 103.351 75.0805 103.784 75.0552 104.218C75.0298 104.652 74.8351 105.053 74.5138 105.332C74.1925 105.612 73.7708 105.747 73.3411 105.708C72.9114 105.669 72.5088 105.459 72.2216 105.125C69.6483 102.129 67.0725 99.1745 64.254 96.5524C62.8715 95.2337 61.4105 94.0028 59.8798 92.8672C58.3677 91.7574 56.7606 90.791 55.0797 89.9806C54.6572 89.7956 54.2412 89.5887 53.8136 89.4192L52.5216 88.939C51.6503 88.6569 50.7666 88.4206 49.874 88.2312C48.0556 87.8818 46.2126 87.7218 44.3743 87.7536C43.4443 87.7631 42.5106 87.8102 41.5752 87.8857C41.1077 87.9235 40.6398 87.9678 40.1715 88.0188L39.4687 88.0992L39.1192 88.142L38.7945 88.1937C38.3634 88.2499 37.9216 88.358 37.4826 88.4486C37.0432 88.5686 36.6008 88.6667 36.1631 88.8098C35.2827 89.0633 34.4165 89.3889 33.5571 89.7235C31.8985 90.3848 30.297 91.1767 28.7668 92.092C27.2858 92.9822 25.9317 94.02 25.0409 95.2314L23.7671 94.0669L23.7041 93.9756L23.7055 93.9747L23.7138 93.9692L23.7248 93.9617L23.7469 93.9469L23.7914 93.9174C23.8204 93.8986 23.8503 93.8796 23.8902 93.8496L24.1135 93.6882L24.5649 93.3556C24.8669 93.1314 25.1672 92.9085 25.4658 92.6869C26.0674 92.2451 26.6617 91.8087 27.2486 91.3777C28.4275 90.5189 29.5899 89.6974 30.7264 88.8962C31.1086 88.6168 31.5123 88.3683 31.934 88.1528C32.0938 88.0636 32.216 88.05 32.3552 87.9556C32.4443 87.8919 32.5514 87.8579 32.6621 87.8582L32.7048 87.4271C32.7575 87.5753 32.7501 87.6612 32.7791 87.6582C32.8013 87.6597 32.8568 87.5704 32.8481 87.4006C32.8471 87.3802 32.8417 87.3601 32.8322 87.3417C32.8227 87.3233 32.8094 87.3072 32.7932 87.2944C32.7771 87.2817 32.7584 87.2726 32.7387 87.2679C32.7189 87.2632 32.6985 87.2629 32.6789 87.2671C32.6593 87.2713 32.641 87.2799 32.6253 87.2922C32.6096 87.3046 32.5969 87.3204 32.5882 87.3385C32.5794 87.3566 32.5748 87.3766 32.5746 87.397C32.5744 87.4174 32.5787 87.4378 32.5871 87.4567L32.7967 87.9222C32.8354 88.0084 32.8142 88.1941 32.7156 88.4509C32.6596 88.6477 32.5816 88.8367 32.483 89.0143C32.1782 89.56 31.809 90.0647 31.3834 90.5178C30.4687 91.5103 29.526 92.478 28.5594 93.4453C28.0761 93.9284 27.5863 94.4099 27.0898 94.8899L26.3347 95.611L25.9427 95.9758L25.7369 96.163C25.659 96.2324 25.5387 96.3306 25.4396 96.4109C25.0846 96.6987 24.6372 96.8482 24.175 96.8334C23.7129 96.8186 23.265 96.6405 22.909 96.33C22.5531 96.0194 22.3115 95.5959 22.2261 95.1329C22.1407 94.67 22.2168 94.1966 22.4414 93.7949L22.5137 93.6673C23.1064 92.6539 23.844 91.7379 24.7033 90.9479C25.1093 90.5938 25.5133 90.2176 25.9371 89.9086C26.1478 89.7488 26.3566 89.5814 26.5702 89.4292L27.216 88.9869C28.9511 87.8453 30.8074 86.8984 32.7536 86.1624C33.7306 85.781 34.7274 85.4501 35.7404 85.1708L36.5133 84.9659L37.3101 84.7906C37.5703 84.7276 37.8552 84.6881 38.1311 84.641L38.5471 84.5731L38.9255 84.5241C38.9332 84.5003 38.9405 84.4782 38.951 84.4535Z" fill="#610A73"/>
</svg>
