<svg width="49" height="46" viewBox="0 0 49 46" fill="none" xmlns="http://www.w3.org/2000/svg">
<path d="M42.3703 11.6497C42.82 11.8975 43.2699 12.1465 43.7263 12.3837C43.9653 12.5151 44.2131 12.6298 44.4679 12.7271C45.1531 12.9665 45.8452 13.1916 46.5381 13.4216L47.0577 13.5955L47.3174 13.6837L47.3336 13.6892C47.3285 13.6865 47.3232 13.6842 47.3178 13.6824C47.3027 13.6767 47.2886 13.6715 47.274 13.6672C47.1842 13.6399 47.089 13.6354 46.997 13.6541C46.9579 13.6621 46.9197 13.6736 46.8828 13.6886C46.8619 13.6974 46.8446 13.7051 46.8189 13.7187C46.7918 13.7328 46.7659 13.7491 46.7414 13.7673C46.65 13.8329 46.5746 13.9185 46.5209 14.0175C46.4908 14.0758 46.4684 14.1377 46.454 14.2017C46.4524 14.1978 46.4507 14.1839 46.4476 14.163L46.4323 14.0369L46.4005 13.76C46.3013 12.8524 46.236 11.9592 46.1533 11.0865C46.0804 10.2312 45.9627 9.38041 45.8006 8.53752C45.761 8.28156 45.7519 8.02181 45.7734 7.76371C45.7849 7.51313 45.9783 7.29464 46.2681 7.09895C46.687 6.81308 47.2208 6.79888 47.4486 7.14183C47.5815 7.36318 47.6609 7.61253 47.6803 7.86998C47.7882 9.00035 47.9712 10.1223 48.2281 11.2284C48.302 11.5292 48.4061 11.8392 48.3623 12.1382C48.3044 12.6048 48.2994 13.0764 48.3475 13.544L48.3786 13.889L48.3868 13.9792C48.3906 14.0216 48.394 14.0657 48.3957 14.1146C48.4006 14.2279 48.3951 14.3414 48.3794 14.4537C48.3558 14.6258 48.2997 14.7917 48.2139 14.9427C48.0925 15.155 47.9082 15.3245 47.6866 15.428C47.5088 15.5101 47.3144 15.5497 47.1187 15.5436C46.9843 15.5398 46.8513 15.5152 46.7244 15.4706C46.7031 15.4634 46.6815 15.4547 46.6603 15.4462C46.6538 15.4437 46.6474 15.4409 46.6411 15.4378L46.6313 15.4328C46.0078 15.1186 45.3457 14.8872 44.7075 14.5963C43.5685 14.0792 42.4372 13.5327 41.3126 12.98C40.8411 12.7648 40.4685 12.3789 40.2701 11.9001C40.1685 11.6544 40.3594 11.2522 40.6018 11.2492C40.9393 11.247 41.2756 11.2869 41.6032 11.368C41.8623 11.4501 42.1142 11.5533 42.3564 11.6765L42.3703 11.6497Z" fill="url(#paint0_linear_2378_905)"/>
<path d="M27.8921 1.93398L27.3416 1.8503L26.7887 1.78663L26.5122 1.75457L26.2349 1.73223L25.6802 1.68852C24.9398 1.65204 24.1973 1.62796 23.4568 1.66267C21.9749 1.71236 20.5023 1.91715 19.063 2.27371C17.6224 2.63097 16.2249 3.14342 14.8948 3.80206L14.3972 4.05448C14.2319 4.13983 14.0627 4.21796 13.904 4.316L12.9383 4.8788L12.0033 5.4941C11.6954 5.70494 11.4008 5.93533 11.0984 6.15472C8.56347 8.09509 6.43553 10.5157 4.83607 13.2784C3.77291 15.1119 2.96062 17.0797 2.42096 19.1292L2.22676 19.8966L2.07453 20.6723L1.99903 21.0602C1.97154 21.1892 1.96128 21.3206 1.94141 21.4507L1.83555 22.2328C1.79991 22.4934 1.79193 22.7565 1.76844 23.0181L1.7385 23.411C1.73403 23.4765 1.72722 23.5418 1.72467 23.6074L1.72189 23.8041L1.70995 24.5909L1.70674 24.7876C1.70691 24.8531 1.71224 24.9185 1.71478 24.9839L1.73342 25.3763C1.77886 26.4215 1.90889 27.4612 2.12224 28.4854L2.31094 29.2449L2.40463 29.6248L2.52389 29.9972L2.763 30.7416C2.84972 30.9871 2.95432 31.2262 3.04863 31.469C3.22667 31.9594 3.47059 32.421 3.69426 32.8913C3.7995 33.1299 3.94146 33.3497 4.06832 33.5772C4.19909 33.8025 4.3254 34.0305 4.45904 34.254L4.89572 34.9033C5.03573 35.1234 5.18681 35.3364 5.34836 35.5412C5.67285 35.9505 5.97816 36.3745 6.33399 36.759C7.02561 37.5456 7.77627 38.2783 8.57944 38.9506C9.38658 39.6204 10.2396 40.2329 11.1321 40.7837C11.358 40.9169 11.579 41.0584 11.8085 41.1853L12.499 41.5622L13.2041 41.9107C13.4376 42.0302 13.6823 42.1256 13.9206 42.2346C14.8823 42.6501 15.8721 42.9974 16.8826 43.2741C18.8967 43.8209 20.9842 44.0475 23.0687 43.9458C25.1298 43.8341 27.1505 43.3294 29.0221 42.459C30.1582 41.9146 31.2202 41.2274 32.1823 40.4141C33.1383 39.5941 33.983 38.6527 34.6948 37.6138C36.1255 35.504 37.0578 33.0965 37.4212 30.5734C37.7916 28.0604 37.5986 25.4618 36.7511 23.0977C35.8898 20.6975 34.5033 18.52 32.6929 16.7241C31.8019 15.8358 30.7976 15.069 29.7059 14.4434C28.6323 13.8288 27.4659 13.3926 26.2524 13.1518C25.0512 12.9229 23.8185 12.9135 22.614 13.1238C22.463 13.1462 22.3134 13.1769 22.1659 13.216L21.7199 13.3197L21.2827 13.4572C21.1357 13.499 20.991 13.5483 20.8491 13.605C20.5664 13.7211 20.2768 13.8214 20.0063 13.9655L19.5938 14.1665L19.1973 14.3975C18.9266 14.5414 18.6835 14.7291 18.4282 14.8976C18.2982 14.9789 18.1857 15.0838 18.0642 15.1766C17.9454 15.2729 17.8232 15.3652 17.7066 15.4641C17.2467 15.8673 16.8226 16.3098 16.4393 16.7865C15.6696 17.74 15.0788 18.8251 14.6956 19.9891C13.9314 22.3163 13.9937 24.9369 14.9326 27.1789C15.4907 28.5354 16.3695 29.7362 17.4938 30.6782C17.7641 30.909 18.0531 31.1167 18.358 31.2992C18.655 31.4791 18.9681 31.6311 19.2931 31.7533C19.6088 31.872 19.9361 31.9572 20.2697 32.0073C20.4325 32.0308 20.5966 32.0451 20.761 32.0503C20.8416 32.0493 20.9257 32.0506 21.0035 32.0479C21.0781 32.042 21.1528 32.0408 21.2285 32.0284C21.7879 31.9497 22.3229 31.7478 22.7948 31.4372C23.1978 31.1809 23.5518 30.8548 23.8402 30.4742C24.2711 29.9129 24.4801 29.2125 24.4273 28.5068C24.3944 28.0792 24.3532 27.8233 24.4514 27.7448C24.4972 27.7064 24.5696 27.715 24.6705 27.7762C24.814 27.872 24.9367 27.9958 25.0312 28.1402C25.1973 28.3808 25.3186 28.6495 25.3892 28.9332C25.4902 29.3379 25.5071 29.7589 25.439 30.1704C25.291 31.1054 24.6858 32.1554 23.6325 32.9188C22.9395 33.4298 22.1268 33.7541 21.2724 33.8606C20.4175 33.9457 19.5542 33.8468 18.7406 33.5704C17.9524 33.3051 17.2124 32.9139 16.5494 32.4119C15.9139 31.934 15.337 31.3828 14.8307 30.7698C14.5429 30.4231 14.2767 30.059 14.0337 29.6797C13.7944 29.3001 13.5778 28.9066 13.3851 28.5014C13.0024 27.6951 12.7137 26.8475 12.5247 25.9753C12.1531 24.24 12.1538 22.4457 12.5267 20.7107C12.6189 20.2792 12.7331 19.8526 12.8689 19.4328C13.0076 19.0135 13.1682 18.6017 13.35 18.1992C13.4365 17.9959 13.5404 17.8004 13.6379 17.6021C13.7419 17.4072 13.8561 17.2178 13.9652 17.0257L14.1317 16.7391L14.3179 16.4651C14.4445 16.2841 14.5621 16.0965 14.6969 15.9218C15.2327 15.2194 15.8376 14.5726 16.5024 13.9911C17.1779 13.4229 17.9073 12.9221 18.6801 12.4959C19.4612 12.0836 20.2817 11.7507 21.1292 11.5021C21.3409 11.44 21.558 11.3962 21.7723 11.3429L22.095 11.2676L22.4224 11.2148C22.6411 11.183 22.8582 11.1381 23.0784 11.1182L23.7399 11.0636C23.8501 11.0529 23.9608 11.0485 24.0714 11.0504L24.4035 11.0486L24.7356 11.0472C24.8464 11.0445 24.9566 11.0599 25.0671 11.0655L25.7299 11.1143C25.9486 11.145 26.1684 11.1705 26.3861 11.2073C27.2556 11.3557 28.1079 11.5918 28.9298 11.9118C30.5563 12.5581 32.0602 13.4779 33.3764 14.6316C34.6831 15.7706 35.8276 17.0834 36.7779 18.5332C37.8571 20.1528 38.6707 21.9345 39.1878 23.8108C39.6791 25.6761 39.8371 27.6134 39.6547 29.5337C39.5162 31.0165 39.2112 32.479 38.7453 33.8935C38.2784 35.3079 37.6474 36.6627 36.8653 37.9303C36.4727 38.5654 36.0405 39.1751 35.5713 39.7558C35.0975 40.3361 34.586 40.8846 34.0401 41.3977C32.9437 42.422 31.7096 43.2883 30.3736 43.9713C29.0431 44.6531 27.6304 45.1607 26.1702 45.4814C24.7182 45.7963 23.234 45.9389 21.7486 45.9063C18.7967 45.8407 15.8883 45.1818 13.1964 43.9688C11.203 43.0821 9.33869 41.93 7.65399 40.5438C6.81359 39.8463 6.02158 39.0924 5.28343 38.2874L4.7468 37.6672L4.613 37.5118L4.48774 37.3491L4.23734 37.0236L3.73726 36.372L3.28112 35.6879L3.05411 35.3449L2.94075 35.1734C2.9043 35.1154 2.87232 35.0546 2.83787 34.9952L2.43233 34.2789L2.23051 33.9202L2.05301 33.5486L1.69911 32.805C1.63658 32.6826 1.59003 32.5532 1.53912 32.4257L1.38835 32.0424L1.23795 31.6591C1.18904 31.5309 1.13379 31.4049 1.09625 31.2727L0.848837 30.4873L0.726521 30.0942L0.62968 29.6943L0.437215 28.8943C0.378363 28.6266 0.340803 28.3547 0.29196 28.0852L0.222963 27.6799L0.188873 27.4773L0.167434 27.2731L0.0825304 26.4563C0.0474357 26.1845 0.04217 25.911 0.030981 25.6378L0 24.8185L0.0187599 23.9999L0.0287032 23.5907C0.0297484 23.4541 0.0484946 23.3188 0.05762 23.1828C0.331516 19.2987 1.61089 15.5403 3.58999 12.2356C5.57828 8.91666 8.27473 6.07763 11.4869 3.92112C13.0937 2.84987 14.8221 1.97338 16.6358 1.31009C17.5471 0.991083 18.4768 0.727048 19.4198 0.519408C20.3625 0.318 21.3167 0.174614 22.277 0.0900582C26.1179 -0.245062 30.0033 0.366836 33.5787 1.72976C34.9844 2.26514 36.3396 2.92496 37.628 3.70136C38.8705 4.44499 40.0431 5.29984 41.1311 6.2554C42.171 7.16364 43.1262 8.16459 43.9848 9.24586C44.7879 10.2677 45.515 11.3469 46.1605 12.4749C46.7353 13.4786 46.8768 14.0217 46.7111 14.0274C46.5385 14.0378 46.0613 13.5111 45.266 12.4669C44.1388 10.9655 42.8677 9.5778 41.4708 8.32349C40.0492 7.06035 38.4936 5.95666 36.8318 5.03217C34.1116 3.50013 31.0539 2.37576 27.9243 1.90813C27.914 1.9173 27.9033 1.92593 27.8921 1.93398Z" fill="url(#paint1_linear_2378_905)"/>
<defs>
<linearGradient id="paint0_linear_2378_905" x1="44.3198" y1="6.88446" x2="44.3198" y2="15.5442" gradientUnits="userSpaceOnUse">
<stop stop-color="#996516"/>
<stop offset="0.25" stop-color="#FFCC00"/>
<stop offset="0.5" stop-color="#D4AF37"/>
<stop offset="1" stop-color="#B8860B"/>
</linearGradient>
<linearGradient id="paint1_linear_2378_905" x1="23.3879" y1="0" x2="23.3879" y2="45.9109" gradientUnits="userSpaceOnUse">
<stop stop-color="#996516"/>
<stop offset="0.25" stop-color="#FFCC00"/>
<stop offset="0.5" stop-color="#D4AF37"/>
<stop offset="1" stop-color="#B8860B"/>
</linearGradient>
</defs>
</svg>
